<svg id="Line" height="512" viewBox="0 0 64 64" width="512" xmlns="http://www.w3.org/2000/svg"><path d="m62.038 33.43186-4.33789-4.35181a5.60323 5.60323 0 0 0 -.63281-7.12769 5.5453 5.5453 0 0 0 -7.11084-.64087l-4.33155-4.34549a3.28643 3.28643 0 0 0 -5.30566.93652l-9.86993 21.217-4.72968 4.74585a.999.999 0 0 0 0 1.41211l.91425.91711-3.341 3.35144a.999.999 0 0 0 0 1.41211l4.85352 4.86914a.99986.99986 0 0 0 1.416 0l3.337-3.34747 8.19031 8.21661a4.43772 4.43772 0 1 0 6.2705-6.28125l-2.585-2.593a6.74528 6.74528 0 0 0 1.02484-5.911l15.30335-7.16492a3.3 3.3 0 0 0 .93459-5.31439zm-6.38672-10.06739a3.59487 3.59487 0 0 1 .595 4.257l-4.82672-4.84222a3.655 3.655 0 0 1 4.23172.58522zm-24.37012 17.75391 6.67774 6.69922-3.44159 3.45294-6.67755-6.699zm12.05024 9.25555-2.24762-2.25451 2.89013-1.35315a4.74576 4.74576 0 0 1 -.64251 3.60766z" fill="#8CC743"/><g fill="#0C1B33"><path d="m48 2h-44a3.00328 3.00328 0 0 0 -3 3v38a3.00328 3.00328 0 0 0 3 3h44a3.00328 3.00328 0 0 0 3-3v-38a3.00328 3.00328 0 0 0 -3-3zm1 3v2h-6.43378l-1.8-3h7.23378a1.00067 1.00067 0 0 1 1 1zm-16.43378 2-1.8-3h7.66754l1.8 3zm-28.56622-3h24.43378l1.8 3h-27.23378v-2a1.00067 1.00067 0 0 1 1-1zm44 40h-44a1.00067 1.00067 0 0 1 -1-1v-34h46v34a1.00067 1.00067 0 0 1 -1 1z"/><path d="m16.18164 15.79a1.27855 1.27855 0 0 0 -2.374.02734l-4.60647 12.09477a.99989.99989 0 0 0 1.86914.71094l.90186-2.36817h6.02057l.893 2.36621a1.00011 1.00011 0 1 0 1.8711-.707zm-3.44781 8.46484 2.26226-5.94043 2.24191 5.94047z"/><path d="m26.7832 15.18164h-3.37207a1.00026 1.00026 0 0 0 -1 1.00195v11.709a1.05942 1.05942 0 0 0 1.02442 1.19336h.0039s2.49414-.00977 3.46-.02637c3.29688-.05859 5.69043-2.9707 5.69043-6.92578-.00004-4.15821-2.33402-6.95216-5.80668-6.95216zm.08106 11.87793c-.5586.00977-1.63379.01758-2.43262.02148-.00391-1.376-.01562-8.4707-.01855-9.89941h2.37011c2.80664 0 3.80664 2.55859 3.80664 4.95215 0 2.86133-1.53222 4.88769-3.72558 4.92578z"/><path d="m6 33h30a.99943.99943 0 0 0 1-1v-20a.99943.99943 0 0 0 -1-1h-30a.99943.99943 0 0 0 -1 1v20a.99943.99943 0 0 0 1 1zm1-20h28v18h-28z"/><path d="m46 13h-6a1 1 0 0 0 0 2h6a1 1 0 0 0 0-2z"/><path d="m46 21h-6a1 1 0 0 0 0 2h6a1 1 0 0 0 0-2z"/><path d="m46 29h-6a1 1 0 0 0 0 2h6a1 1 0 0 0 0-2z"/><path d="m46 40h-40a1 1 0 0 0 0 2h40a1 1 0 0 0 0-2z"/><path d="m46 36h-40a1 1 0 0 0 0 2h40a1 1 0 0 0 0-2z"/></g></svg>