<svg id="Line" height="512" viewBox="0 0 64 64" width="512" xmlns="http://www.w3.org/2000/svg"><path d="m60 27.5a3.00328 3.00328 0 0 0 -3-3h-26a3.00328 3.00328 0 0 0 -3 3v3h32z" fill="#8CC743"/><path d="m60.81006 42.67969a3.03383 3.03383 0 0 0 2.18994-2.87256v-4.30713a3.00328 3.00328 0 0 0 -3-3h-5v7a1 1 0 0 1 -2 0v-7h-25a3.00328 3.00328 0 0 0 -3 3v4.30713a3.034 3.034 0 0 0 2.18945 2.87256 4.0018 4.0018 0 0 1 .00049 7.64062 3.03383 3.03383 0 0 0 -2.18994 2.87256v4.30713a3.00328 3.00328 0 0 0 3 3h25v-7a1 1 0 0 1 2 0v7h5a3.00328 3.00328 0 0 0 3-3v-4.30713a3.034 3.034 0 0 0 -2.18945-2.87256 4.0018 4.0018 0 0 1 -.00049-7.64062zm-12.81006 5.32031h-2.63184l-3.47363 6.94727a.99985.99985 0 0 1 -.89453.55273h-1a1.00059 1.00059 0 0 1 -.93652-1.35107l2.30584-6.14893h-3.892l-1.54865 3.87158a1.00123 1.00123 0 0 1 -.92867.62842h-1a1.00074 1.00074 0 0 1 -.92871-1.37158l1.85138-4.62842-1.85138-4.62842a1.00085 1.00085 0 0 1 .92871-1.37158h1a1.00123 1.00123 0 0 1 .92871.62842l1.54865 3.87158h3.892l-2.30584-6.14893a1.0006 1.0006 0 0 1 .93648-1.35107h1a.99985.99985 0 0 1 .89453.55273l3.47363 6.94727h2.63184a1.5 1.5 0 0 1 0 3zm7 1.5a1 1 0 0 1 -2 0v-6a1 1 0 0 1 2 0z" fill="#8CC743"/><g fill="#0C1B33"><path d="m50.00076 37.50831h-48a1 1 0 1 0 0 2h48a1 1 0 0 0 0-2z"/><path d="m51.23708 7.31739a8.74683 8.74683 0 0 0 -11.77295-2.54539l-9.00683 5.43944-22.25098-4.37891a2.926 2.926 0 0 0 -3.43652 2.26465l-.46436 2.28027a2.99208 2.99208 0 0 0 1.47022 3.21338l10.49512 5.89844-7.33594 4.80713-3.74317-.73633a3.5075 3.5075 0 0 0 -4.12207 2.71338 3.42005 3.42005 0 0 0 .95606 3.13037l3.37256 3.31689a2.97944 2.97944 0 0 0 2.10205.86084h.02246l9.91357-.06933a2.994 2.994 0 0 0 1.58057-.46289l31.022-19.57276a4.42357 4.42357 0 0 0 1.19821-6.15918zm-10.73877-.83349a6.77037 6.77037 0 0 1 7.4488.28418l-8.28522 5.42822a1.9158 1.9158 0 0 1 -2.625-.51172l-1.49579-2.207zm8.4458 5.31933-30.99511 19.55469a.99368.99368 0 0 1 -.52588.1543l-9.91455.06933h-.00781a.99268.99268 0 0 1 -.7002-.28662l-3.37207-3.31693a1.42619 1.42619 0 0 1 -.39893-1.30616 1.50662 1.50662 0 0 1 1.77588-1.14984l4.14356.81543a1.00149 1.00149 0 0 0 .74121-.14453l9.05322-5.93262a.99978.99978 0 0 0 -.05859-1.708l-11.9292-6.70461a.998.998 0 0 1 -.49024-1.07129l.46436-2.28028a.92128.92128 0 0 1 1.09033-.70166l22.63037 4.45362a1.0051 1.0051 0 0 0 .71-.125l2.66651-1.61029 1.55468 2.29388a3.9227 3.9227 0 0 0 5.37647 1.0625l8.64655-5.66522a2.43177 2.43177 0 0 1 -.46056 3.5993z"/><path d="m17.45779 24.336-4.52686 2.96582a.99987.99987 0 0 0 1.0957 1.67285l4.52686-2.96582a.99987.99987 0 0 0 -1.0957-1.67285z"/><path d="m24.81374 19.51563-4.52685 2.96631a.99987.99987 0 1 0 1.0957 1.67285l4.52686-2.9663a.99988.99988 0 0 0 -1.09571-1.67286z"/><path d="m32.16872 14.69581-4.52636 2.96631a1.00014 1.00014 0 1 0 1.09664 1.67288l4.52636-2.96631a1.00014 1.00014 0 1 0 -1.09668-1.67285z"/></g></svg>