<svg id="Line" height="512" viewBox="0 0 64 64" width="512" xmlns="http://www.w3.org/2000/svg"><path d="m53 28a.99974.99974 0 0 0 -1-1h-16a.99974.99974 0 0 0 -1 1v5h-2v30h22v-30h-2zm-16 1h14v4h-14zm11.71484 11.69189c-.79199 1.53174-2.71484 2.30811-5.71484 2.30811-1.03809 0-2.36816.1499-2.80859.86328-.38849.62793-.17224 1.85419.59484 3.45911l2.76844 1.84561a.99963.99963 0 0 1 .44531.832v6a.99974.99974 0 0 1 -1 1h-6a.99974.99974 0 0 1 -1-1v-6a.99963.99963 0 0 1 .44531-.832l2.28815-1.52545c-.88928-2.06678-.97058-3.65412-.24323-4.831.74317-1.20217 2.25977-1.81155 4.50977-1.81155 2.12793 0 3.52637-.43506 3.93749-1.22461.51661-.99316-.39452-2.68506-.75487-3.19971a.99993.99993 0 0 1 1.63379-1.15332c.21386.30274 2.06059 3.02393.89843 5.26953z" fill="#8CC743"/><path d="m60 33h-3v30h3a3.00328 3.00328 0 0 0 3-3v-24a3.00328 3.00328 0 0 0 -3-3z" fill="#8CC743"/><path d="m38 50.535v4.465h4v-4.465l-2-1.333z" fill="#8CC743"/><path d="m25 36v24a3.00328 3.00328 0 0 0 3 3h3v-30h-3a3.00328 3.00328 0 0 0 -3 3z" fill="#8CC743"/><g fill="#0C1B33"><path d="m20 19h-14a1 1 0 0 0 -1 1v4a1 1 0 0 0 1 1h11.895c-.3828 2.23327-1.46742 3.46349-3.69873 3.01953a4.69206 4.69206 0 0 0 -5.04053 2.11719 8.0539 8.0539 0 0 0 -1.02783 2.24286l-2.6826 1.78842a.99963.99963 0 0 0 -.44531.832v6a1 1 0 0 0 1 1h6a1 1 0 0 0 1-1v-6a.99963.99963 0 0 0 -.44531-.832l-2.39136-1.59424a5.84769 5.84769 0 0 1 .64868-1.31689 2.69824 2.69824 0 0 1 2.9917-1.27637c3.47129.69484 5.62683-1.4285 6.11493-4.9805h.08136a1 1 0 0 0 1-1v-4a1 1 0 0 0 -1-1zm-9 21h-4v-4.46484l2-1.3335 2 1.3335zm-4-19h12v2h-12z"/><path d="m22 14h-1v-10a3.00328 3.00328 0 0 0 -3-3h-10a3.00328 3.00328 0 0 0 -3 3v10h-1a3.00328 3.00328 0 0 0 -3 3v28a3.00328 3.00328 0 0 0 3 3h1v2a1 1 0 0 0 2 0v-2h12v2a1 1 0 0 0 2 0v-2h1a3.00328 3.00328 0 0 0 3-3v-28a3.00328 3.00328 0 0 0 -3-3zm-14-11h10a1.0013 1.0013 0 0 1 1 1v1h-12v-1a1.0013 1.0013 0 0 1 1-1zm-1 4h12v7h-12zm16 38a1.0013 1.0013 0 0 1 -1 1h-18a1.0013 1.0013 0 0 1 -1-1v-28a1.0013 1.0013 0 0 1 1-1h18a1.0013 1.0013 0 0 1 1 1z"/><path d="m46 19h-14a1 1 0 0 0 -1 1v4a1 1 0 0 0 1 1h14a.99974.99974 0 0 0 1-1v-4a.99974.99974 0 0 0 -1-1zm-1 4h-12v-2h12z"/><path d="m48 14h-1v-10a3.00328 3.00328 0 0 0 -3-3h-10a3.00328 3.00328 0 0 0 -3 3v10h-1a3.00328 3.00328 0 0 0 -3 3v28a3.00328 3.00328 0 0 0 3 3h1v2a1 1 0 0 0 2 0v-2h12v2a1 1 0 0 0 2 0v-2h1a3.00328 3.00328 0 0 0 3-3v-28a3.00328 3.00328 0 0 0 -3-3zm-14-11h10a1.001 1.001 0 0 1 1 1v1h-12v-1a1.001 1.001 0 0 1 1-1zm-1 4h12v7h-12zm16 38a1.001 1.001 0 0 1 -1 1h-18a1.0013 1.0013 0 0 1 -1-1v-28a1.0013 1.0013 0 0 1 1-1h18a1.001 1.001 0 0 1 1 1z"/><path d="m46 41h-14a1 1 0 0 0 0 2h14a1 1 0 0 0 0-2z"/></g></svg>