<svg id="Line" height="512" viewBox="0 0 64 64" width="512" xmlns="http://www.w3.org/2000/svg"><g fill="#8CC743"><path d="m44.92773 35.64453a2.9989 2.9989 0 0 1 3.93457 1.5874.99961.99961 0 1 0 1.83985-.78222 3.00372 3.00372 0 0 1 1.58885-3.93457 1.00025 1.00025 0 0 0 -.78321-1.84082 4.98717 4.98717 0 0 0 -2.90039 3.40722 4.99614 4.99614 0 0 0 -4.46289-.27783 1.00025 1.00025 0 0 0 .7832 1.84082z"/><path d="m53.665 28.57568a3.00318 3.00318 0 0 1 1.65918 3.90479 1.00029 1.00029 0 0 0 1.85547.74805 2.99808 2.99808 0 0 1 3.90435-1.65918.99984.99984 0 1 0 .74805-1.8545 4.9806 4.9806 0 0 0 -4.46.35791 4.99631 4.99631 0 0 0 -2.959-3.35156.99984.99984 0 1 0 -.748 1.85449z"/><path d="m62 43a5.75815 5.75815 0 0 0 -3.55762 1.16748 4.01848 4.01848 0 0 1 -4.89746.00049 6.00072 6.00072 0 0 0 -7.11426 0 4.00936 4.00936 0 0 1 -4.89062 0 5.9918 5.9918 0 0 0 -7.1084 0 4.00865 4.00865 0 0 1 -4.89014 0 5.99179 5.99179 0 0 0 -7.10839 0 3.78124 3.78124 0 0 1 -2.44483.83203.99943.99943 0 0 0 -1 1.00049l.00586 7.99951h.99414a3.78124 3.78124 0 0 0 2.44483-.832 5.99179 5.99179 0 0 1 7.10839 0 4.00865 4.00865 0 0 0 4.89014 0 5.9918 5.9918 0 0 1 7.1084 0 4.00936 4.00936 0 0 0 4.89062 0 6.00072 6.00072 0 0 1 7.11426 0 4.01848 4.01848 0 0 0 4.89746-.00049 5.75815 5.75815 0 0 1 3.55762-1.16751h1v-8a.99974.99974 0 0 0 -1-1z"/><path d="m59.55176 54.832a6.00471 6.00471 0 0 1 -7.11621.00049 4.01561 4.01561 0 0 0 -4.89555-.00049 5.99329 5.99329 0 0 1 -7.10938 0 4.00792 4.00792 0 0 0 -4.88964 0 5.99255 5.99255 0 0 1 -7.10889 0 4.00793 4.00793 0 0 0 -4.88965 0 5.74349 5.74349 0 0 1 -3.55416 1.168h-.99267l.00439 6.00049a1.00026 1.00026 0 0 0 1 .99951h42a.99974.99974 0 0 0 1-1v-8h-1a3.78819 3.78819 0 0 0 -2.44824.832z"/></g><path d="m49.98633 46.99917a5.75083 5.75083 0 0 0 -3.55567 1.168 3.74172 3.74172 0 0 1 -2.53247.82862l3.06372-10.72168a1.007 1.007 0 0 0 .03809-.27494v-7a.99938.99938 0 0 0 -1.06641-.99756l-.71179.04742c1.38593-7.05755.33905-13.08874-3.1261-17.93707-6.8164-9.53955-20.41699-11.04785-20.9927-11.10742a1 1 0 0 0 -1.103.99463v5.12939a20.45619 20.45619 0 0 0 -16.98047 16.67432.99873.99873 0 0 0 .06152.59033l5.40253 12.606h-1.1579a1.99908 1.99908 0 0 0 -1.92285 2.54979l2.699 9.44586a3.74015 3.74015 0 0 1 -2.55005-.82721 5.73759 5.73759 0 0 0 -3.55178-1.16848 1 1 0 0 0 0 2 3.77475 3.77475 0 0 1 2.44141.83154 5.91885 5.91885 0 0 0 7.10547.00049 3.93954 3.93954 0 0 1 4.88769 0 5.92632 5.92632 0 0 0 7.10791 0 3.94236 3.94236 0 0 1 4.88965 0 5.9279 5.9279 0 0 0 7.10889 0 3.94294 3.94294 0 0 1 4.88964 0 5.92817 5.92817 0 0 0 7.10938 0 3.78241 3.78241 0 0 1 2.44629-.832 1 1 0 0 0 0-2zm-32.98633-13.06446 28-1.86671v4.93116h-28zm0-2.00421v-6.93133h14.58594l5.58655 5.58648zm5-28.77362c13.84513 2.36057 23.46351 10.60401 21.56934 24.66212-4.39355-7.51931-11.91479-11.03707-21.56934-8.8462zm20.60614 27.06653-2.81989.18805c-.21962-.29531-1.98679-2.00512-7.07922-7.11933a1.00011 1.00011 0 0 0 -.707-.293h-10.00003v-1.97262c.104.03226 14.34148-4.50628 20.60614 9.1969zm-22.60614-21.08209v9.64148c-5.61664-.88672-11.3385 1.51458-14.44513 3.1592a18.121 18.121 0 0 1 14.44513-12.80068zm-14.74084 15.25689c2.04937-1.20544 8.66253-4.68646 14.74084-3.5755v2.17646h-3a2.002 2.002 0 0 0 -2 2v12h-4.34076zm29.17248 23.76892a3.943 3.943 0 0 1 -4.89014 0 5.927 5.927 0 0 0 -7.10839 0 3.9416 3.9416 0 0 1 -4.88916 0c-2.86994-1.91448-5.01832-1.27745-7.522.26838l-2.69627-9.43634h37.34845l-2.70007 9.448c-2.52886-1.54926-4.63761-2.21778-7.54242-.28004z" fill="#0C1B33"/><path d="m23 26.99917h-3a1 1 0 0 0 0 2h3a1 1 0 0 0 0-2z" fill="#0C1B33"/><path d="m29 26.99917h-2a1 1 0 0 0 0 2h2a1 1 0 0 0 0-2z" fill="#0C1B33"/></svg>