<svg id="Line" height="512" viewBox="0 0 64 64" width="512" xmlns="http://www.w3.org/2000/svg"><path d="m59.5 57.00015a3.00883 3.00883 0 0 0 3-3v-25a3.00879 3.00879 0 0 0 -3-3h-23a3.99887 3.99887 0 0 0 -4 4v29a3.99891 3.99891 0 0 0 4 4h25a1 1 0 0 0 0-2h-2a2 2 0 0 1 0-4zm-3.44366 4h-19.55634a2 2 0 0 1 0-4h19.55634a3.87309 3.87309 0 0 0 0 4zm.44366-9h-18a1 1 0 0 1 0-2h18a1 1 0 0 1 0 2zm0-7h-18a1 1 0 0 1 0-2h18a1 1 0 0 1 0 2zm1-8-2.4-1.8a1.00043 1.00043 0 0 0 -1.2 0l-2.4 1.8v-9h6z" fill="#8CC743"/><g fill="#0C1B33"><path d="m49.67236 1.43863c-.07226.10449-1.81936 2.56152-6.17236 2.56152a7.28713 7.28713 0 0 1 -3.23437-1.10645c-6.75305-3.44938-11.11863-1.84397-13.76563 2.06177-2.64812-3.90747-7.01463-5.5101-13.76562-2.06177a7.2872 7.2872 0 0 1 -3.23438 1.10645c-4.353 0-6.1001-2.457-6.168-2.55469a1.00086 1.00086 0 0 0 -1.832.55469v42a3.00328 3.00328 0 0 0 3 3h44a3.00328 3.00328 0 0 0 3-3v-42a1.00266 1.00266 0 0 0 -1.82764-.56152zm-10.31689 3.23637a8.96092 8.96092 0 0 0 4.14453 1.32515 10.44766 10.44766 0 0 0 6-1.71484v32.37109a7.69443 7.69443 0 0 1 -6 2.34375c-2.54614 0-4.82569-3-10-3a8.02052 8.02052 0 0 0 -6 2.69043v-31.48145c1.874-4.04113 5.63013-5.71379 11.85547-2.53413zm-35.85547-.38969a10.44766 10.44766 0 0 0 6 1.71484 8.96092 8.96092 0 0 0 4.14453-1.32515c6.21968-3.17677 9.98014-1.51186 11.85547 2.53413v31.48145a8.02052 8.02052 0 0 0 -6-2.69043c-5.1826 0-7.435 3-10 3a7.69443 7.69443 0 0 1 -6-2.34375zm0 39.71484v-4.71783a10.42447 10.42447 0 0 0 6 1.71783c3.41706 0 5.21255-3 10-3 3.84229 0 5.64032 3.42975 6 4.21081v2.78919h-21a1.001 1.001 0 0 1 -1-1zm45 1h-21v-2.78937c.36334-.78772 2.16162-4.21063 6-4.21063 4.74775 0 6.62134 3 10 3a10.42447 10.42447 0 0 0 6-1.71783v4.71783a1.001 1.001 0 0 1 -1 1z"/><path d="m31.78906 10.24624a5.929 5.929 0 0 1 1.71094-.24609c4.74775 0 6.62134 3 10 3a12.30743 12.30743 0 0 0 2.17773-.18848 1.00029 1.00029 0 0 0 -.35546-1.96875 10.24486 10.24486 0 0 1 -1.82227.15723c-2.54614 0-4.82569-3-10-3a7.89685 7.89685 0 0 0 -2.28906.332.99973.99973 0 1 0 .57812 1.91406z"/><path d="m31.78906 17.24624a5.929 5.929 0 0 1 1.71094-.24609c4.74775 0 6.62134 3 10 3a12.30743 12.30743 0 0 0 2.17773-.18848 1.00029 1.00029 0 0 0 -.35546-1.96875 10.24486 10.24486 0 0 1 -1.82227.15723c-2.54614 0-4.82569-3-10-3a7.89685 7.89685 0 0 0 -2.28906.332.99973.99973 0 1 0 .57812 1.91406z"/><path d="m31.78906 24.24624a5.929 5.929 0 0 1 1.71094-.24609c4.74775 0 6.62134 3 10 3a12.30743 12.30743 0 0 0 2.17773-.18848 1.00029 1.00029 0 0 0 -.35546-1.96875 10.24486 10.24486 0 0 1 -1.82227.15723c-2.54614 0-4.82569-3-10-3a7.89685 7.89685 0 0 0 -2.28906.332.99973.99973 0 1 0 .57812 1.91406z"/><path d="m31.78906 31.24624a5.929 5.929 0 0 1 1.71094-.24609c4.74775 0 6.62134 3 10 3a12.30743 12.30743 0 0 0 2.17773-.18848 1.00029 1.00029 0 0 0 -.35546-1.96875 10.24486 10.24486 0 0 1 -1.82227.15723c-2.54614 0-4.82569-3-10-3a7.89685 7.89685 0 0 0 -2.28906.332.99973.99973 0 1 0 .57812 1.91406z"/><path d="m7.32227 12.81167a12.30743 12.30743 0 0 0 2.17773.18848c3.41706 0 5.21255-3 10-3a5.929 5.929 0 0 1 1.71094.24609.99973.99973 0 1 0 .57812-1.91406 7.89685 7.89685 0 0 0 -2.28906-.33203c-5.1826 0-7.435 3-10 3a10.24486 10.24486 0 0 1 -1.82227-.15723 1.00029 1.00029 0 0 0 -.35546 1.96875z"/><path d="m7.32227 19.81167a12.30743 12.30743 0 0 0 2.17773.18848c3.41706 0 5.21255-3 10-3a5.929 5.929 0 0 1 1.71094.24609.99973.99973 0 1 0 .57812-1.91406 7.89685 7.89685 0 0 0 -2.28906-.332c-5.1826 0-7.435 3-10 3a10.24486 10.24486 0 0 1 -1.82227-.15723 1.00029 1.00029 0 0 0 -.35546 1.96875z"/><path d="m7.32227 26.81167a12.30743 12.30743 0 0 0 2.17773.18848c3.41706 0 5.21255-3 10-3a5.929 5.929 0 0 1 1.71094.24609.99973.99973 0 1 0 .57812-1.91406 7.89685 7.89685 0 0 0 -2.28906-.332c-5.1826 0-7.435 3-10 3a10.24486 10.24486 0 0 1 -1.82227-.15723 1.00029 1.00029 0 0 0 -.35546 1.96875z"/><path d="m7.32227 33.81167a12.30743 12.30743 0 0 0 2.17773.18848c3.41706 0 5.21255-3 10-3a5.929 5.929 0 0 1 1.71094.24609.99973.99973 0 1 0 .57812-1.91406 7.89685 7.89685 0 0 0 -2.28906-.332c-5.1826 0-7.435 3-10 3a10.24486 10.24486 0 0 1 -1.82227-.15723 1.00029 1.00029 0 0 0 -.35546 1.96875z"/></g></svg>