<svg id="Line" height="512" viewBox="0 0 64 64" width="512" xmlns="http://www.w3.org/2000/svg"><path d="m60 23h-24a3.00879 3.00879 0 0 0 -3 3v34a3.00883 3.00883 0 0 0 3 3h24a3.00883 3.00883 0 0 0 3-3v-34a3.00879 3.00879 0 0 0 -3-3zm-14 3h4a1 1 0 0 1 0 2h-4a1 1 0 0 1 0-2zm-10 6a.99974.99974 0 0 1 1-1h22a.99974.99974 0 0 1 1 1v8a.99943.99943 0 0 1 -1 1h-22a.99943.99943 0 0 1 -1-1zm24 13v8a.99943.99943 0 0 1 -1 1h-8a.99943.99943 0 0 1 -1-1v-8a.99943.99943 0 0 1 1-1h8a.99943.99943 0 0 1 1 1zm-24 0a.99943.99943 0 0 1 1-1h8a.99943.99943 0 0 1 1 1v8a.99943.99943 0 0 1 -1 1h-8a.99943.99943 0 0 1 -1-1zm25 15a1.003 1.003 0 0 1 -1 1h-24a1.003 1.003 0 0 1 -1-1v-1h26z" fill="#8CC743"/><path d="m52 46h6v6h-6z" fill="#8CC743"/><path d="m38 33h20v6h-20z" fill="#8CC743"/><path d="m38 46h6v6h-6z" fill="#8CC743"/><g fill="#0C1B33"><path d="m48 1h-44a3.00328 3.00328 0 0 0 -3 3v30a3.00328 3.00328 0 0 0 3 3h16.75354l-1.07874 4.85449a2.72443 2.72443 0 0 1 -2.6748 2.14551 3.00328 3.00328 0 0 0 -3 3v1a3.00328 3.00328 0 0 0 3 3h18a3.00328 3.00328 0 0 0 3-3v-1a3.00328 3.00328 0 0 0 -3-3 2.72443 2.72443 0 0 1 -2.6748-2.14551l-1.07874-4.85449h16.75354a3.00328 3.00328 0 0 0 3-3v-30a3.00328 3.00328 0 0 0 -3-3zm-17.62695 41.28809a4.71214 4.71214 0 0 0 4.62695 3.71191 1.00067 1.00067 0 0 1 1 1v1a1.00067 1.00067 0 0 1 -1 1h-18a1.001 1.001 0 0 1 -1-1v-1a1.001 1.001 0 0 1 1-1 4.71214 4.71214 0 0 0 4.627-3.71191l1.17525-5.28809h6.3955zm18.62695-8.28809a1.00067 1.00067 0 0 1 -1 1h-44a1.001 1.001 0 0 1 -1-1v-30a1.0013 1.0013 0 0 1 1-1h44a1.001 1.001 0 0 1 1 1z"/><path d="m46 5h-40a1 1 0 0 0 -1 1v8a1 1 0 0 0 1 1h26.66162l-.27588 6.22119a1.00082 1.00082 0 0 0 1.49121.915l1.74121-.98389 1.9668 3.48243a1.001 1.001 0 0 0 1.36328.3789l3.48242-1.96777a1.00031 1.00031 0 0 0 .37891-1.36231l-1.96777-3.48287 1.7412-.98388a1.00062 1.00062 0 0 0 -.01465-1.749l-.86053-.4678h4.29218a.99974.99974 0 0 0 1-1v-8a.99974.99974 0 0 0 -1-1zm-7.165 17.78027-1.9668-3.48193a1.00109 1.00109 0 0 0 -1.36328-.37891l-1.041.58838.2666-6.02441 5.29785 2.87988-1.041.58838a1.00042 1.00042 0 0 0 -.3789 1.3623l1.96777 3.48243zm6.165-9.78027h-6.97137l-3.74836-2.0376a.99977.99977 0 0 0 -1.47656.834l-.0534 1.2036h-25.75031v-6h38z"/><path d="m10 11h15a1 1 0 0 0 0-2h-15a1 1 0 0 0 0 2z"/><path d="m6 20h21a1 1 0 0 0 0-2h-21a1 1 0 0 0 0 2z"/><path d="m6 25h24a1 1 0 0 0 0-2h-24a1 1 0 0 0 0 2z"/><path d="m34 28h-28a1 1 0 0 0 0 2h28a1 1 0 0 0 0-2z"/></g></svg>