<svg id="Line" height="512" viewBox="0 0 64 64" width="512" xmlns="http://www.w3.org/2000/svg"><g fill="#8CC743"><path d="m44.58154 48.35645a3.02958 3.02958 0 0 0 -2.14453-3.5127c-.19177-.06769-.36548-.1322-.54541-.19781v6.706a3.75241 3.75241 0 0 0 2.68994-2.99549z"/><path d="m39.769 36.52246a2.75043 2.75043 0 0 0 -1.84521 2.16406 2.15958 2.15958 0 0 0 .61377 2.13184 8.13209 8.13209 0 0 0 1.354.82837v-5.15c-.04219.01151-.07973.01285-.12256.02573z"/><path d="m41 25a19 19 0 1 0 19 19 19.02162 19.02162 0 0 0 -19-19zm-.1084 31a.99974.99974 0 0 1 -1-1v-1.51489a7.13063 7.13063 0 0 1 -4.07031-1.366 1 1 0 1 1 1.09471-1.6738 5.13889 5.13889 0 0 0 2.97558 1.0423v-7.63123a11.79636 11.79636 0 0 1 -2.58838-1.4638 4.13667 4.13667 0 0 1 -1.34472-4.07715 4.72387 4.72387 0 0 1 3.23339-3.707 7.14379 7.14379 0 0 1 .69971-.17175v-1.43668a1 1 0 0 1 2 0v1.35883a6.0784 6.0784 0 0 1 3.19092 1.35894 1.00019 1.00019 0 0 1 -1.35059 1.47559 4.05852 4.05852 0 0 0 -1.84033-.80682v6.12451c.37488.14392.77088.29126 1.21192.447a5.00906 5.00906 0 0 1 3.45019 5.72949 5.717 5.717 0 0 1 -4.66211 4.72235v1.59011a.99974.99974 0 0 1 -.99998 1zm4.37451 3.4248a.99993.99993 0 1 1 -.53222-1.92773 14.00237 14.00237 0 0 0 -3.73389-27.49707 13.87842 13.87842 0 0 0 -8.39941 2.79834.99981.99981 0 1 1 -1.20118-1.59863 16.00073 16.00073 0 0 1 25.60059 12.80029 16.04035 16.04035 0 0 1 -11.73389 15.4248z"/></g><path d="m30.1272 15.71246 2.64624-9.26208a2.96763 2.96763 0 0 0 -3.92578-3.563 2.5114 2.5114 0 0 1 -.85059.13037 2.58524 2.58524 0 0 1 -1.877-.78125 4.56708 4.56708 0 0 0 -6.25049.00049 2.58194 2.58194 0 0 1 -1.87451.78076 2.52615 2.52615 0 0 1 -.84326-.12793 2.9684 2.9684 0 0 0 -3.92432 3.564l2.18651 7.65275-5.96673-2.98334a1.00012 1.00012 0 0 0 -.89454 1.78906l5.582 2.791-5.37741 1.34426a1.00011 1.00011 0 0 0 .48536 1.94045l4.647-1.16175c-3.59812 4.10649-9.88968 12.77391-9.88968 23.19151 0 4.5293 4.46045 10 10 10h18c5.53955 0 10-5.4707 10-10 0-12.8836-9.62518-23.09613-11.8728-25.3053zm-13.63794-10.93591a4.47886 4.47886 0 0 0 1.50586.24121 4.52226 4.52226 0 0 0 3.124-1.21924 2.60112 2.60112 0 0 1 3.75195 0 4.52675 4.52675 0 0 0 3.126 1.21924 4.48012 4.48012 0 0 0 1.51807-.24463.96953.96953 0 0 1 1.33545 1.12793l-2.605 9.1167h-10.4912l-2.604-9.11376a.97082.97082 0 0 1 1.33887-1.12745zm15.51074 44.24121h-18c-4.30859 0-8-4.39843-8-8 0-12.22217 9.64111-22.26758 11.40283-24h11.19434c1.76172 1.73242 11.40283 11.77783 11.40283 24 0 3.60157-3.69141 8-8 8z" fill="#0C1B33"/><path d="m25.24512 31.96845c-.49707-.17566-.94251-.34174-1.36231-.50367v-6.759a4.49117 4.49117 0 0 1 2.11963.90326 1 1 0 0 0 1.35108-1.47461 6.47945 6.47945 0 0 0 -3.47071-1.45337v-1.5393a1 1 0 0 0 -2 0v1.61926a7.60112 7.60112 0 0 0 -.812.19275 5.02124 5.02124 0 0 0 -3.436 3.94189 4.38664 4.38664 0 0 0 1.42334 4.32373 12.71965 12.71965 0 0 0 2.8247 1.59174v8.37042a5.60921 5.60921 0 0 1 -3.33545-1.13843 1 1 0 1 0 -1.09476 1.67388 7.54488 7.54488 0 0 0 4.43017 1.46729v1.70947a1 1 0 0 0 2 0v-1.7854a6.09121 6.09121 0 0 0 5.03467-5.04175 5.331 5.331 0 0 0 -3.67236-6.09816zm-4.95264-2.32325a2.4102 2.4102 0 0 1 -.69189-2.3789 2.98118 2.98118 0 0 1 2.28222-2.447v5.78546a9.11577 9.11577 0 0 1 -1.59033-.95956zm6.65283 8.08936a4.12488 4.12488 0 0 1 -3.0625 3.32794v-7.46112c.22669.08319.45081.166.69532.25232a3.34691 3.34691 0 0 1 2.36718 3.88086z" fill="#0C1B33"/></svg>