<?xml version="1.0" encoding="UTF-8"?>
<svg xmlns="http://www.w3.org/2000/svg" id="Line" width="512" height="512" viewBox="0 0 64 64"><circle cx="38" cy="34" r="4" style="fill:#8CC743"/><path d="M62,56H61V41a3.00879,3.00879,0,0,0-3-3H49V31.26l2.46,1.58a.99859.99859,0,1,0,1.08-1.68l-14-9a1.00456,1.00456,0,0,0-1.08,0l-14,9a.99859.99859,0,1,0,1.08,1.68L27,31.26V56H26a.99943.99943,0,0,0-1,1v5a.99943.99943,0,0,0,1,1H62a.99943.99943,0,0,0,1-1V57A.99943.99943,0,0,0,62,56ZM54,46a5.00588,5.00588,0,0,1,5,5v5H57V51a3,3,0,0,0-6,0v5H49V51A5.00588,5.00588,0,0,1,54,46ZM38,28a6,6,0,1,1-6,6A6.00657,6.00657,0,0,1,38,28ZM33,51a5,5,0,0,1,10,0v5H41V51a3,3,0,0,0-6,0v5H33ZM61,61H27V58H61Z" style="fill:#8CC743"/><path d="M51,47H48V43.90967A6.00448,6.00448,0,0,0,53,38a5.91957,5.91957,0,0,0-1.72852-4.19336A4.65125,4.65125,0,0,0,51.75,31.75a4.75,4.75,0,0,0-9.5,0,4.65125,4.65125,0,0,0,.47852,2.05664A5.91957,5.91957,0,0,0,41,38a6.00448,6.00448,0,0,0,5,5.90967V47H39V10a.99976.99976,0,0,0-.41211-.80859l-11-8a.99648.99648,0,0,0-1.17578,0l-11,8A.99976.99976,0,0,0,15,10V47H8V43.90967A6.00448,6.00448,0,0,0,13,38a5.91957,5.91957,0,0,0-1.72852-4.19336A4.65125,4.65125,0,0,0,11.75,31.75a4.75,4.75,0,0,0-9.5,0,4.65125,4.65125,0,0,0,.47852,2.05664A5.91957,5.91957,0,0,0,1,38a6.00448,6.00448,0,0,0,5,5.90967V47H3a1,1,0,0,0,0,2H51a1,1,0,0,0,0-2Zm-8-9a3.96417,3.96417,0,0,1,1.62012-3.19434,1.0002,1.0002,0,0,0,.19824-1.40527A2.71286,2.71286,0,0,1,44.25,31.75a2.75,2.75,0,0,1,5.5,0,2.71286,2.71286,0,0,1-.56836,1.65039,1.0002,1.0002,0,0,0,.19824,1.40527A3.97222,3.97222,0,0,1,48,41.858V37a1,1,0,0,0-2,0v4.858A3.99552,3.99552,0,0,1,43,38ZM3,38a3.96417,3.96417,0,0,1,1.62012-3.19434,1.0002,1.0002,0,0,0,.19824-1.40527A2.71286,2.71286,0,0,1,4.25,31.75a2.75,2.75,0,0,1,5.5,0,2.71286,2.71286,0,0,1-.56836,1.65039,1.0002,1.0002,0,0,0,.19824,1.40527A3.97222,3.97222,0,0,1,8,41.858V37a1,1,0,0,0-2,0v4.858A3.99552,3.99552,0,0,1,3,38Zm18,9V39H33v8Zm14,0V38a.99943.99943,0,0,0-1-1H20a.99943.99943,0,0,0-1,1v9H17V10.50879L27,3.23633l10,7.27246V47Z" style="fill:#0C1B33"/><path d="M34,13H20a.99943.99943,0,0,0-1,1v8a.99943.99943,0,0,0,1,1H34a.99943.99943,0,0,0,1-1V14A.99943.99943,0,0,0,34,13ZM21,15h5v6H21Zm12,6H28V15h5Z" style="fill:#0C1B33"/><path d="M34,25H20a.99943.99943,0,0,0-1,1v8a.99943.99943,0,0,0,1,1H34a.99943.99943,0,0,0,1-1V26A.99943.99943,0,0,0,34,25ZM21,27h5v6H21Zm12,6H28V27h5Z" style="fill:#0C1B33"/></svg>
