<svg id="Line" height="512" viewBox="0 0 64 64" width="512" xmlns="http://www.w3.org/2000/svg"><g fill="#8CC743"><path d="m57 37.5a5.47014 5.47014 0 0 1 -1-.09v3.09h-14v-3.09a5.59872 5.59872 0 0 1 -2 0v3.09h-20a1 1 0 0 0 -1 1v16a1 1 0 0 0 1 1h42a1 1 0 0 0 1-1v-16a1 1 0 0 0 -1-1h-4v-3.09a5.47014 5.47014 0 0 1 -1 .09zm-25 13h-8a1 1 0 0 1 0-2h8a1 1 0 0 1 0 2zm13 0h-8a1 1 0 0 1 0-2h8a1 1 0 0 1 0 2zm14-1a1 1 0 0 1 -1 1h-8a1 1 0 0 1 0-2h8a1 1 0 0 1 1 1z"/><path d="m57 27.5a1.003 1.003 0 0 1 1 1v8.91a5.98968 5.98968 0 0 0 5-5.91v-9a6 6 0 0 0 -12 0v9a5.98968 5.98968 0 0 0 5 5.91v-8.91a1.003 1.003 0 0 1 1-1z"/><path d="m41 27.5a1.003 1.003 0 0 1 1 1v8.91a5.98968 5.98968 0 0 0 5-5.91v-9a6 6 0 0 0 -12 0v9a5.98968 5.98968 0 0 0 5 5.91v-8.91a1.003 1.003 0 0 1 1-1z"/></g><path d="m50.74365 24.08789-5.354-3.82422a3.00574 3.00574 0 0 1 -.93945-1.09961l-6.00293-12.00586a2.98411 2.98411 0 0 0 -2.68311-1.6582h-27.35449a3.00725 3.00725 0 0 0 -2.82567 1.99072l-4.2925 12.02051a4.97966 4.97966 0 0 0 -.2915 1.68164v16.30713a3.00328 3.00328 0 0 0 3 3h4.09033a5.99242 5.99242 0 0 0 11.81934 0h12.18066a5.99242 5.99242 0 0 0 11.81934 0h5.09033a3.00328 3.00328 0 0 0 3-3v-10.9707a3.00783 3.00783 0 0 0 -1.25635-2.44141zm-47.56885-3.90381 4.293-12.02051a1.00172 1.00172 0 0 1 .94187-.66357h27.35449a.9945.9945 0 0 1 .894.55273l6.00342 12.00635a5.02312 5.02312 0 0 0 1.56592 1.83252l5.35351 3.82373a1.00283 1.00283 0 0 1 .419.814v7.97067h-8.69044a5.97663 5.97663 0 0 0 -6.61914 0h-17.38086a5.97663 5.97663 0 0 0 -6.61914 0h-7.69043v-13.30713a2.981 2.981 0 0 1 .1748-1.00879zm28.91553 18.31592h-12.18066a5.9498 5.9498 0 0 0 -.72144-2h13.62354a5.9498 5.9498 0 0 0 -.72144 2zm-29.09033-1v-1h5.81177a5.9498 5.9498 0 0 0 -.72144 2h-4.09033a1.0013 1.0013 0 0 1 -1-1zm11 6a4 4 0 1 1 4-4 4.00458 4.00458 0 0 1 -4 4zm24 0a4 4 0 1 1 4-4 4.00458 4.00458 0 0 1 -4 4zm11-5h-5.09033a5.9498 5.9498 0 0 0 -.72144-2h6.81177v1a1.0013 1.0013 0 0 1 -1 1z" fill="#0C1B33"/><path d="m7 21.5h32a1.00068 1.00068 0 0 0 .89453-1.44727l-5-10a.99985.99985 0 0 0 -.89453-.55273h-24a1.00024 1.00024 0 0 0 -.958.71289l-3 10a1.0004 1.0004 0 0 0 .958 1.28711zm11-2v-8h8v8zm19.38184 0h-9.38184v-8h5.38184zm-26.6377-8h5.25586v8h-7.65576z" fill="#0C1B33"/><path d="m30 24.5h-2a1 1 0 0 0 0 2h2a1 1 0 0 0 0-2z" fill="#0C1B33"/></svg>