<svg id="Line" height="512" viewBox="0 0 64 64" width="512" xmlns="http://www.w3.org/2000/svg"><path d="m44 34a10 10 0 1 0 10 10 10.01146 10.01146 0 0 0 -10-10zm5.84766 6.52979-5 8a.999.999 0 0 1 -1.44727.27l-4-3a.99961.99961 0 1 1 1.19922-1.5996l3.12988 2.34668 4.42285-7.07667a.9996.9996 0 1 1 1.69532 1.05958z" fill="#8CC743"/><path d="m59.88184 39.58154a2.68629 2.68629 0 0 1 -1.52735-3.688 4.68963 4.68963 0 0 0 -6.249-6.248 2.6856 2.6856 0 0 1 -3.6875-1.52735 4.68888 4.68888 0 0 0 -8.83594 0 2.686 2.686 0 0 1 -3.6875 1.52735 4.68957 4.68957 0 0 0 -6.249 6.248 2.68629 2.68629 0 0 1 -1.52735 3.688 4.68958 4.68958 0 0 0 0 8.83692 2.68629 2.68629 0 0 1 1.52735 3.688 4.69 4.69 0 0 0 6.249 6.248 2.68611 2.68611 0 0 1 3.6875 1.52735 4.68888 4.68888 0 0 0 8.83594 0 2.6861 2.6861 0 0 1 3.6875-1.52735 4.69 4.69 0 0 0 6.249-6.248 2.68629 2.68629 0 0 1 1.52735-3.688 4.68958 4.68958 0 0 0 0-8.83692zm-15.88184 16.41846a12 12 0 1 1 12-12 12.01343 12.01343 0 0 1 -12 12z" fill="#8CC743"/><g fill="#0C1B33"><path d="m46 1h-4a.99974.99974 0 0 0 -1 1v2h-37a3.00328 3.00328 0 0 0 -3 3v29a3.00328 3.00328 0 0 0 3 3l5-.00043v2.764l-3.89453 7.78916a1.00078 1.00078 0 0 0 1.13672 1.41748l3.03027-.75732.75781 3.02979a.99973.99973 0 0 0 1.81739.28711l4.15234-6.64374 4.15234 6.64374a.99975.99975 0 0 0 1.81739-.28711l.75781-3.02979 3.03027.75732a1.0007 1.0007 0 0 0 1.13672-1.41748l-3.89453-7.78912v-2.76361h23a5.00588 5.00588 0 0 0 5-5v-28a5.00588 5.00588 0 0 0 -5-5zm-34.60059 49.47412-.42968-1.7168a.999.999 0 0 0 -1.21192-.72753l-1.89062.47265 2.76074-5.522 3.98157 2.35821zm-.39941-9.59766v-5.81884l5-2.90137 5 2.90137v5.81884l-5 2.96143zm11.24219 7.15333a.99639.99639 0 0 0 -1.21192.72753l-.42968 1.7168-3.21009-5.13544 3.98157-2.35821 2.76074 5.522zm23.75781-11.02979h-23v-2.51807a.99888.99888 0 0 0 -.498-.86474l-6-3.48194a.9975.9975 0 0 0 -1.0039 0l-6 3.48194a.99888.99888 0 0 0 -.4981.86474v2.51764l-5 .00043a1.001 1.001 0 0 1 -1-1v-29a1.001 1.001 0 0 1 1-1h37v24a.99974.99974 0 0 0 1 1h4a3 3 0 0 1 0 6zm3-6.99756a4.97426 4.97426 0 0 0 -3-1.00244h-3v-26h3a3.00328 3.00328 0 0 1 3 3z"/><path d="m38 9h-32a1 1 0 0 0 0 2h32a1 1 0 0 0 0-2z"/><path d="m38 15h-32a1 1 0 0 0 0 2h32a1 1 0 0 0 0-2z"/><path d="m38 21h-32a1 1 0 0 0 0 2h32a1 1 0 0 0 0-2z"/><path d="m37.83691 32c-.415 0-.68652-.33252-1.207-1.0918a3.71569 3.71569 0 0 0 -2.999-2.05664c-1.49121-.01318-2.48242 1.09424-3.38867 2.08106-1.127 1.22607-1.48145 1.45166-1.89649 1.206a.57092.57092 0 0 1 -.33691-.44043c-.11621-.79.84375-2.24072 1.56152-3.019a.99957.99957 0 0 0 -1.46582-1.35938c-.24414.26221-2.373 2.62354-2.07519 4.66553a2.564 2.564 0 0 0 1.29883 1.876c1.71911 1.01263 3.07275-.14752 4.38671-1.57569.61719-.67236 1.31739-1.43408 1.87305-1.43408h.00977c.51953.0083.82031.36865 1.38281 1.18848a3.50393 3.50393 0 0 0 2.85639 1.95995 1 1 0 0 0 0-2z"/><circle cx="16" cy="38" r="1.5"/></g></svg>