<svg id="Line" height="512" viewBox="0 0 64 64" width="512" xmlns="http://www.w3.org/2000/svg"><path d="m60 27.50019h-32a3.00328 3.00328 0 0 0 -3 3v22a3.00328 3.00328 0 0 0 3 3h10.48535l4.70069 6.581a1.0007 1.0007 0 0 0 1.62792 0l4.70069-6.581h10.48535a3.00328 3.00328 0 0 0 3-3v-22a3.00328 3.00328 0 0 0 -3-3zm-2 23h-28a1 1 0 0 1 0-2h28a1 1 0 0 1 0 2zm0-8h-28a1 1 0 0 1 0-2h28a1 1 0 0 1 0 2zm0-8h-28a1 1 0 0 1 0-2h28a1 1 0 0 1 0 2z" fill="#8CC743"/><g fill="#0C1B33"><path d="m48 14.50019h-22.18427a2.96466 2.96466 0 0 0 .18427-1v-9a3.00328 3.00328 0 0 0 -3-3h-18a3.00328 3.00328 0 0 0 -3 3v9a3.00328 3.00328 0 0 0 3 3h1v4a1.00047 1.00047 0 0 0 1.58105.81347l6.73926-4.81347h4.864a2.96457 2.96457 0 0 0 -.18427 1v8h-15.00004a3.00328 3.00328 0 0 0 -3 3v14a3.00328 3.00328 0 0 0 3 3h3v5a1.0013 1.0013 0 0 0 1.65088.75878l6.71924-5.75878h14.62988a3.00328 3.00328 0 0 0 3-3v-8h3.62988l6.71924 5.75881a1.00063 1.00063 0 0 0 1.65088-.75881v-5h3a3.00328 3.00328 0 0 0 3-3v-14a3.00328 3.00328 0 0 0 -3-3zm-34 0a.99949.99949 0 0 0 -.581.18652l-5.419 3.87012v-3.05664a.99973.99973 0 0 0 -1-1h-2a1.001 1.001 0 0 1 -1-1v-9a1.001 1.001 0 0 1 1-1h18a1.001 1.001 0 0 1 1 1v9a1.001 1.001 0 0 1 -1 1zm17 28a1.001 1.001 0 0 1 -1 1h-15a.99564.99564 0 0 0 -.65088.24121l-5.34912 4.58496v-3.82617a.99973.99973 0 0 0 -1-1h-4a1.001 1.001 0 0 1 -1-1v-14a1.001 1.001 0 0 1 1-1h26a1.001 1.001 0 0 1 1 1zm18-11a1.001 1.001 0 0 1 -1 1h-4a.99973.99973 0 0 0 -1 1v3.82617l-5.34912-4.585a.99564.99564 0 0 0 -.65088-.24117h-4v-4a3.00328 3.00328 0 0 0 -3-3h-9v-8a1.001 1.001 0 0 1 1-1h26a1.001 1.001 0 0 1 1 1z"/><path d="m28 29.50019h-22a1 1 0 0 0 0 2h22a1 1 0 0 0 0-2z"/><path d="m28 34.50019h-22a1 1 0 0 0 0 2h22a1 1 0 0 0 0-2z"/><path d="m18 39.50019h-12a1 1 0 0 0 0 2h12a1 1 0 0 0 0-2z"/><path d="m45 18.50019h-20a1 1 0 0 0 0 2h20a1 1 0 0 0 0-2z"/><path d="m45 23.50019h-9a1 1 0 0 0 0 2h9a1 1 0 0 0 0-2z"/><path d="m45 28.50019h-9a1 1 0 0 0 0 2h9a1 1 0 0 0 0-2z"/><path d="m7 7.50019h14a1 1 0 0 0 0-2h-14a1 1 0 0 0 0 2z"/><path d="m21 10.50019h-14a1 1 0 0 0 0 2h14a1 1 0 0 0 0-2z"/></g></svg>