<svg id="Line" height="512" viewBox="0 0 64 64" width="512" xmlns="http://www.w3.org/2000/svg"><g fill="#8CC743"><path d="m50.37 46h-12.74l6.37 5.662z"/><path d="m43 53.44849-8.12323-7.22071a23.44189 23.44189 0 0 0 -6.87677 15.77222.99943.99943 0 0 0 1 1h14z"/><path d="m53.12323 46.22778-8.12323 7.22071v9.55151h14a.99943.99943 0 0 0 1-1 23.44189 23.44189 0 0 0 -6.87677-15.77222zm-4.62323 14.77222a1.5 1.5 0 1 1 1.5-1.5 1.5 1.5 0 0 1 -1.5 1.5zm0-5a1.5 1.5 0 1 1 1.5-1.5 1.5 1.5 0 0 1 -1.5 1.5z"/><path d="m40.64648 38.65527a.99961.99961 0 0 1 1.50977-1.31054 2.92408 2.92408 0 0 0 3.6875 0 .99961.99961 0 0 1 1.50977 1.31054 4.85456 4.85456 0 0 1 -6.70704 0z"/><path d="m55.71 41.59c-1.564-7.91775-1.88251-17.59-11.71-17.59-10.0564 0-10.19551 10.04971-11.71 17.57a2.005 2.005 0 0 0 1.96 2.43h19.5a2.0003 2.0003 0 0 0 1.96-2.41zm-11.3.4h-.83a8.00945 8.00945 0 0 1 -7.58-7.99 8.26509 8.26509 0 0 1 .06-1h5.94a.98806.98806 0 0 0 .89-.55l1.11-2.21 1.11 2.21a.98806.98806 0 0 0 .89.55h5.94a8.26509 8.26509 0 0 1 .06 1 8.01809 8.01809 0 0 1 -7.59 7.99z"/></g><path d="m27.88129 26.04059a12.97325 12.97325 0 0 0 7.01812-17.26 8.97408 8.97408 0 0 0 3.10059-6.78059.99974.99974 0 0 0 -1-1h-14a12.99511 12.99511 0 0 0 -4.88129 25.04059c-8.31787 3.58581-14.11871 15.66766-14.11871 23.95941a.99943.99943 0 0 0 1 1h36a.99943.99943 0 0 0 1-1c0-8.29175-5.80084-20.3736-14.11871-23.95941zm-4.88129-23.04059h12.92871a7.01058 7.01058 0 0 1 -6.92871 6h-15.78571a11.00327 11.00327 0 0 1 9.78571-6zm-11 11a10.94836 10.94836 0 0 1 .42645-3h16.57355a8.94052 8.94052 0 0 0 4.213-1.05237 10.99458 10.99458 0 1 1 -21.213 4.05237zm18.09741 15.67438a7.98519 7.98519 0 0 1 -14.19458-.00019 11.69542 11.69542 0 0 1 7.09717-2.67419 11.69537 11.69537 0 0 1 7.09741 2.67438zm-24.06811 19.32562a29.59878 29.59878 0 0 1 8.32489-17.98645 9.989 9.989 0 0 0 17.292.0003 29.59875 29.59875 0 0 1 8.32451 17.98615z" fill="#0C1B33"/><path d="m26.2002 19.39941a3.9983 3.9983 0 0 1 -6.4004.00049 1.00019 1.00019 0 0 0 -1.5996 1.20117 5.9982 5.9982 0 0 0 9.5996-.00048 1.00019 1.00019 0 1 0 -1.5996-1.20118z" fill="#0C1B33"/><path d="m17 37h-4a1 1 0 0 0 0 2h4a1 1 0 0 0 0-2z" fill="#0C1B33"/></svg>