<svg id="Line" height="512" viewBox="0 0 64 64" width="512" xmlns="http://www.w3.org/2000/svg"><g fill="#8CC743"><path d="m21 50v5.792l8.291-5.792z"/><path d="m38 50h-5.21808l-11.78192 8.23187v.76813a2.99956 2.99956 0 0 0 1.8988 2.78418l15.1012-10.54918z"/><path d="m38 53.674-11.918 8.326h11.918z"/><path d="m21 36.208v5.792h8.291z"/><path d="m45 44h18v4h-18a.99974.99974 0 0 0 -1 1v13h-4v-13a.99974.99974 0 0 0 -1-1h-18v-4h18a.99974.99974 0 0 0 1-1v-13h4v13a.99974.99974 0 0 0 1 1z"/><path d="m38 38.326v-8.326h-11.918z"/><path d="m46 53.674v8.326h11.918z"/><path d="m63 42v-5.792l-8.291 5.792z"/><path d="m63 59v-.76868l-11.78192-8.23132h-5.21808v1.235l15.10071 10.54936a2.99949 2.99949 0 0 0 1.89929-2.78436z"/><path d="m38 42h-5.21808l-11.78192-8.23187v-.76813a2.99956 2.99956 0 0 1 1.8988-2.78418l15.1012 10.54918z"/><path d="m63 33v.76868l-11.78192 8.23132h-5.21808v-1.235l15.10071-10.54936a2.99949 2.99949 0 0 1 1.89929 2.78436z"/><path d="m63 55.792v-5.792h-8.291z"/><path d="m46 38.326 11.919-8.326h-11.919z"/></g><path d="m49 10h-1v-5a3.00328 3.00328 0 0 0 -3-3h-41a3.00328 3.00328 0 0 0 -3 3v28a3.00328 3.00328 0 0 0 3 3h5v7a1.0002 1.0002 0 0 0 1 1h20.69727l11.748 7.832a1.0005 1.0005 0 0 0 1.55473-.832v-7h5a3.00328 3.00328 0 0 0 3-3v-28a3.00328 3.00328 0 0 0 -3-3zm-39 24h-6a1.001 1.001 0 0 1 -1-1v-28a1.001 1.001 0 0 1 1-1h41a1.001 1.001 0 0 1 1 1v28a1.001 1.001 0 0 1 -1 1h-23a1.00094 1.00094 0 0 0 -.55469.168l-10.44531 6.96384v-6.13184a.99974.99974 0 0 0 -1-1zm40 7a1.001 1.001 0 0 1 -1 1h-6a.99974.99974 0 0 0 -1 1v6.13184l-10.44531-6.96384a1.00091 1.00091 0 0 0 -.55469-.168h-17.69727l9-6h22.69727a3.00328 3.00328 0 0 0 3-3v-21h1a1.001 1.001 0 0 1 1 1z" fill="#0C1B33"/><path d="m24.10645 31a.99974.99974 0 0 0 1-1v-18.751l13.02343 18.8584a1.30148 1.30148 0 0 0 1.47364.5918 1.41484 1.41484 0 0 0 .91894-1.4502l-.20508-21.25877a1.00021 1.00021 0 0 0 -1-.99023h-.00976a.99948.99948 0 0 0 -.99024 1.00977l.18408 19.11623-13.57226-19.65334a.99979.99979 0 0 0 -1.82275.56836v21.95898a.99974.99974 0 0 0 1 1z" fill="#0C1B33"/><path d="m19.6626 29.89941a.99974.99974 0 0 0 -1-1h-8.18506v-8.89941h7.50781a1 1 0 0 0 0-2h-7.50781v-8.89941h8.18506a1 1 0 0 0 0-2h-9.18506a.99973.99973 0 0 0 -1 1v21.79882a.99973.99973 0 0 0 1 1h9.18506a.99974.99974 0 0 0 1-1z" fill="#0C1B33"/></svg>