<?xml version="1.0" encoding="UTF-8"?>
<svg xmlns="http://www.w3.org/2000/svg" id="Line" width="512" height="512" viewBox="0 0 64 64"><path d="M45,27H27a1.00075,1.00075,0,0,0-.63965,1.76855l5.16211,4.29883A18.00081,18.00081,0,1,0,45,27ZM38,37H52a1,1,0,0,1,0,2H38a1,1,0,0,1,0-2ZM52,53H38a1,1,0,0,1,0-2H52a1,1,0,0,1,0,2Zm4-7H34a1,1,0,0,1,0-2H56a1,1,0,0,1,0,2Z" style="fill:#8CC743"/><path d="M23.2002,19.39941a3.99768,3.99768,0,0,1-6.4004,0,1.00019,1.00019,0,0,0-1.5996,1.20118,5.99781,5.99781,0,0,0,9.5996,0,1.00019,1.00019,0,1,0-1.5996-1.20118Z" style="fill:#0C1B33"/><path d="M14,37H10a1,1,0,0,0,0,2h4a1,1,0,0,0,0-2Z" style="fill:#0C1B33"/><path d="M53,27c-.38184,0-.77051.03711-1.16992.07617-1.62988.165-3.043.30371-4.998-2.63086-1.59375-2.39062-3.40918-3.77539-5.39648-4.11523A5.46849,5.46849,0,0,0,39,20.46564V20a1,1,0,0,0-2,0V35.10107a4.95564,4.95564,0,0,0-2.01019.93293c-2.74366-4.87641-6.321-8.35535-10.13282-9.98456A12.9685,12.9685,0,0,0,32.36377,10H33a1,1,0,0,0,0-2H31.52094A12.98086,12.98086,0,0,0,8.47906,8H7a1,1,0,0,0,0,2h.63623a12.96957,12.96957,0,0,0,7.48254,16.04059C6.80084,29.6264,1,41.70825,1,50a.99943.99943,0,0,0,1,1H40a3.00328,3.00328,0,0,0,3-3V38a3.00328,3.00328,0,0,0-3-3H39V28.65259c2.24347-.95166,2.87488-.06159,3.917,1.50561C43.75879,31.42383,44.80664,33,47,33c4.56543,0,6.80176-4.36719,6.89453-4.55273A1.00093,1.00093,0,0,0,53,27ZM29.20758,8H26V4.79242A11.078,11.078,0,0,1,29.20758,8ZM21,8V3.05066a10.89975,10.89975,0,0,1,3.04431.72961A.95921.95921,0,0,0,24,4V8ZM16,8V4a.95907.95907,0,0,0-.04431-.21979A10.90019,10.90019,0,0,1,19,3.05066V8ZM14,4.79242V8H10.79242A11.078,11.078,0,0,1,14,4.79242ZM9,14a10.925,10.925,0,0,1,.764-4H30.236A10.99556,10.99556,0,1,1,9,14ZM27.10437,29.65918a7.98434,7.98434,0,0,1-14.20142.01489A11.69517,11.69517,0,0,1,20,27,11.87817,11.87817,0,0,1,27.10437,29.65918ZM11.35419,31.01349a9.98919,9.98919,0,0,0,17.30743-.026,29.11347,29.11347,0,0,1,4.96869,6.63263A4.93645,4.93645,0,0,0,33,40v6a4.95129,4.95129,0,0,0,1.02557,3H3.0293A29.5986,29.5986,0,0,1,11.35419,31.01349ZM41,38V48a1.00067,1.00067,0,0,1-1,1H38a3.00328,3.00328,0,0,1-3-3V40a3.00328,3.00328,0,0,1,3-3h2A1.00067,1.00067,0,0,1,41,38Zm6-7c-1.06934,0-1.58984-.7041-2.418-1.94922-1.0108-1.52051-2.35425-3.52862-5.582-2.53515V22.579a3.54175,3.54175,0,0,1,2.13184-.27136c1.41211.25586,2.7705,1.34765,4.03613,3.24707,2.11914,3.17969,4.13574,3.625,5.76074,3.59179A5.454,5.454,0,0,1,47,31Z" style="fill:#0C1B33"/></svg>
