<svg id="Line" height="512" viewBox="0 0 64 64" width="512" xmlns="http://www.w3.org/2000/svg"><path d="m60 41h-7v20h-2v-27a1.00019 1.00019 0 0 0 -.6377-.93213l-18-7a1.0009 1.0009 0 0 0 -1.3623.93213v9h11a1 1 0 0 1 0 2h-11v7h11a1 1 0 0 1 0 2h-11v7h11a1 1 0 0 1 0 2h-11v6a1 1 0 0 0 1 1h30a1 1 0 0 0 1-1v-18a3.00328 3.00328 0 0 0 -3-3zm-5 6a1 1 0 0 1 2 0v10a1 1 0 0 1 -2 0zm6 10a1 1 0 0 1 -2 0v-10a1 1 0 0 1 2 0z" fill="#8CC743"/><g fill="#0C1B33"><path d="m48 23.95435h-11v-4a3.00328 3.00328 0 0 0 -3-3h-16a3.00328 3.00328 0 0 0 -3 3v11h-11a3.00328 3.00328 0 0 0 -3 3v14a3.00328 3.00328 0 0 0 3 3h44a3.00328 3.00328 0 0 0 3-3v-21a3.00328 3.00328 0 0 0 -3-3zm-45 24v-14a1.0013 1.0013 0 0 1 1-1h11v16h-11a1.0013 1.0013 0 0 1 -1-1zm14-28a1.0013 1.0013 0 0 1 1-1h16a1.0013 1.0013 0 0 1 1 1v29h-3v-9a1 1 0 0 0 -1-1h-10a1 1 0 0 0 -1 1v9h-3zm5 29v-8h8v8zm27-1a1.0013 1.0013 0 0 1 -1 1h-11v-23h11a1.0013 1.0013 0 0 1 1 1z"/><path d="m12 34.95435h-6a1 1 0 0 0 -1 1v5a1.00005 1.00005 0 0 0 1 1h6a1.00005 1.00005 0 0 0 1-1v-5a1 1 0 0 0 -1-1zm-1 5h-4v-3h4z"/><path d="m45 28.95435h-4a1 1 0 0 0 0 2h4a1 1 0 0 0 0-2z"/><path d="m45 33.95435h-4a1 1 0 0 0 0 2h4a1 1 0 0 0 0-2z"/><path d="m45 38.95435h-4a1 1 0 0 0 0 2h4a1 1 0 0 0 0-2z"/><path d="m45 43.95435h-4a1 1 0 0 0 0 2h4a1 1 0 0 0 0-2z"/><path d="m21 35.95435h10a1 1 0 1 0 0-2h-10a1 1 0 0 0 0 2z"/><path d="m21 29.95435h10a1 1 0 0 0 0-2h-10a1 1 0 0 0 0 2z"/><path d="m21 23.95435h10a1 1 0 0 0 0-2h-10a1 1 0 0 0 0 2z"/><path d="m22.03369 9.32349-.59375 3.46191a1.00077 1.00077 0 0 0 1.45117 1.0542l3.10889-1.63428 3.10889 1.63428a1.00088 1.00088 0 0 0 1.45117-1.0542l-.59375-3.46191 2.51469-2.45118a1.00069 1.00069 0 0 0 -.5542-1.706l-3.47559-.50488-1.55421-3.14943a1.04174 1.04174 0 0 0 -1.79394 0l-1.5542 3.14942-3.47559.50488a1.00071 1.00071 0 0 0 -.5542 1.706zm2.32276-2.7583a1.00042 1.00042 0 0 0 .75341-.54737l.89014-1.80371.89014 1.80371a1.00042 1.00042 0 0 0 .75341.54737l1.99073.28906-1.44043 1.40381a1.00178 1.00178 0 0 0 -.28809.88525l.34033 1.98291-1.78076-.936a1.00085 1.00085 0 0 0 -.93066 0l-1.78076.936.34033-1.98291a1.00178 1.00178 0 0 0 -.28809-.88525l-1.44043-1.40381z"/><path d="m39.03369 12.32349-.59375 3.46191a1.00106 1.00106 0 0 0 1.45117 1.0542l3.10889-1.63428 3.10889 1.63428a1.001 1.001 0 0 0 1.45117-1.0542l-.59375-3.46191 2.51469-2.45118a1.00069 1.00069 0 0 0 -.5542-1.70605l-3.47559-.50488-1.55421-3.14938a1.04174 1.04174 0 0 0 -1.79394 0l-1.5542 3.14942-3.47559.50488a1.00071 1.00071 0 0 0 -.5542 1.70605zm2.32276-2.7583a1.00042 1.00042 0 0 0 .75341-.54737l.89014-1.80371.89014 1.80371a1.00042 1.00042 0 0 0 .75341.54737l1.99073.28906-1.44043 1.40381a1.00178 1.00178 0 0 0 -.28809.88525l.34033 1.98291-1.78076-.936a1.00085 1.00085 0 0 0 -.93066 0l-1.78076.936.34033-1.98291a1.00178 1.00178 0 0 0 -.28809-.88525l-1.44043-1.40381z"/><path d="m5.03369 12.32349-.59375 3.46191a1.001 1.001 0 0 0 1.45117 1.0542l3.10889-1.63428 3.10889 1.63428a1.00088 1.00088 0 0 0 1.45117-1.0542l-.59375-3.46191 2.51469-2.45118a1.00069 1.00069 0 0 0 -.5542-1.70605l-3.47559-.50488-1.55421-3.14938a1.04174 1.04174 0 0 0 -1.79394 0l-1.55423 3.14938-3.47559.50488a1.00071 1.00071 0 0 0 -.55424 1.70605zm2.32276-2.7583a1.00042 1.00042 0 0 0 .75341-.54737l.89014-1.80371.89014 1.80371a1.00042 1.00042 0 0 0 .75341.54737l1.99073.28906-1.44043 1.40381a1.00178 1.00178 0 0 0 -.28809.88525l.34033 1.98291-1.78076-.936a1.00085 1.00085 0 0 0 -.93066 0l-1.78076.936.34033-1.98291a1.00178 1.00178 0 0 0 -.28809-.88525l-1.44043-1.40381z"/></g></svg>