<svg id="Line" height="512" viewBox="0 0 64 64" width="512" xmlns="http://www.w3.org/2000/svg"><g fill="#8CC743"><path d="m62 42a5.741 5.741 0 0 0 -3.55273 1.168 3.94129 3.94129 0 0 1 -4.88868 0 5.92721 5.92721 0 0 0 -7.10839 0 3.94251 3.94251 0 0 1 -4.88965 0 5.92722 5.92722 0 0 0 -7.1084 0 3.943 3.943 0 0 1 -4.88965 0 5.92812 5.92812 0 0 0 -7.10937 0 3.78249 3.78249 0 0 1 -2.44629.832.99984.99984 0 0 0 -1 .999l-.00641 8.001h1.00641a3.78249 3.78249 0 0 0 2.44629-.832 5.928 5.928 0 0 1 7.10937 0 3.94321 3.94321 0 0 0 4.88965 0 5.92686 5.92686 0 0 1 7.1084 0 3.94237 3.94237 0 0 0 4.88965 0 5.92685 5.92685 0 0 1 7.10839 0 3.94111 3.94111 0 0 0 4.88868 0 5.741 5.741 0 0 1 3.55273-1.168h.99713l.00287-7.99951a1.00048 1.00048 0 0 0 -1-1.00049z"/><path d="m59.55664 53.832a5.92542 5.92542 0 0 1 -7.10742 0 3.94251 3.94251 0 0 0 -4.88965 0 5.92722 5.92722 0 0 1 -7.1084 0 3.94251 3.94251 0 0 0 -4.88965 0 5.92682 5.92682 0 0 1 -7.10839 0 3.94405 3.94405 0 0 0 -4.89063 0 5.75076 5.75076 0 0 1 -3.55566 1.168h-1.00806l-.00562 6.999a1.00067 1.00067 0 0 0 1 1.001h42a1 1 0 0 0 1-.99951l.00324-9.00049h-.9964a3.778 3.778 0 0 0 -2.44336.832z"/><path d="m54.669 41.50439c1.53089 1.0206 2.165.295 3.22747-.35937a23.55158 23.55158 0 0 1 1.99128-6.69824 1.00073 1.00073 0 0 0 -1.00489-1.44043 13.55625 13.55625 0 0 0 -10.78856 7.21618 7.95413 7.95413 0 0 1 6.5747 1.28186z"/></g><path d="m52.294 5.3927c-8.98174-2.76507-14.44811 1.3113-16.969 5.1403a14.19064 14.19064 0 0 0 -5.66382-7.57391c-3.82231-2.40916-8.86138-2.59715-14.97759-.55955a1.00063 1.00063 0 0 0 -.60254 1.34277l1.99024 4.64356a4.01223 4.01223 0 0 0 4.49023 2.33935c2.93183-.6004 7.74109-1.08649 11.22791 1.01111a34.929 34.929 0 0 0 -18.54193 15.87323 35.27127 35.27127 0 0 0 -11.4057.7514 1.00044 1.00044 0 0 0 -.8418.98731v20a.99974.99974 0 0 0 1 1h27a1.00089 1.00089 0 0 0 .998-1.06543c-.36591-5.59729-1.66419-10.16266-3.86164-13.6615 1.35926-7.91882 5.76825-15.76367 9.57062-19.566l.02722-.02722a18.4525 18.4525 0 0 1 2.1408 12.49837 4.97032 4.97032 0 0 0 3.9668 5.60986l5.96191 1.19239a1.00076 1.00076 0 0 0 1.19531-.93067c.73047-14.61987-6.4129-19.57361-10.746-21.23065a18.11019 18.11019 0 0 1 9.31238.03388 3.99214 3.99214 0 0 0 4.93848-3.31055l.48632-3.40088a.9999.9999 0 0 0 -.6962-1.09717zm-32.13482 3.37354a2.00652 2.00652 0 0 1 -2.25-1.16846l-1.55469-3.62744c5.03906-1.48828 9.14551-1.26172 12.22559.67139a11.79207 11.79207 0 0 1 4.44433 5.4873c-3.63941-2.30173-8.61536-2.23478-12.86523-1.36279zm-17.15918 39.58203v-18.18213c14.54582-3.01919 23.53891 2.784 24.91992 18.18213zm25.879-26.17053-2.10846-1.556a1 1 0 1 0 -1.1875 1.60937l2.365 1.74536a43.607 43.607 0 0 0 -3.40812 9.46653 16.84069 16.84069 0 0 0 -9.22016-5.45745 28.39144 28.39144 0 0 1 2.45209-3.60907l3.34631 1.99182a1.00019 1.00019 0 1 0 1.02344-1.71875l-3.06506-1.8244a34.4253 34.4253 0 0 1 7.67724-6.39289l1.89466 1.5166a1.00011 1.00011 0 0 0 1.25-1.56152l-1.2757-1.02112a36.63748 36.63748 0 0 1 4.968-2.167c.45319.4973.4009.5009.96112 1.18317a31.74758 31.74758 0 0 0 -5.67286 7.79535zm18.163 10.9591-4.80761-.96142a2.97362 2.97362 0 0 1 -2.38184-3.3501c.57812-3.83106.53711-9.11182-2.416-13.86475 7.36878 2.68958 9.76386 10.3635 9.60545 18.17627zm3.48144-23.52884a1.98936 1.98936 0 0 1 -2.46 1.65625 19.91763 19.91763 0 0 0 -10.86621.12354c3.21768-4.61853 8.22715-5.76579 13.68949-4.31833z" fill="#0C1B33"/><path d="m49.9873 46.34827a5.746 5.746 0 0 0 -3.55566 1.168 3.94237 3.94237 0 0 1 -4.88965 0 5.9285 5.9285 0 0 0 -7.10937 0 4.0809 4.0809 0 0 1 -1.62013.76074 1.00015 1.00015 0 0 0 .375 1.96484 5.97913 5.97913 0 0 0 2.35451-1.06155 3.94375 3.94375 0 0 1 4.89063 0 5.92724 5.92724 0 0 0 7.1084 0 3.78244 3.78244 0 0 1 2.44628-.832 1 1 0 0 0 0-2z" fill="#0C1B33"/><path d="m49.9873 41.34827a5.746 5.746 0 0 0 -3.55566 1.168 3.94237 3.94237 0 0 1 -4.88965 0 5.92686 5.92686 0 0 0 -7.1084 0 3.78161 3.78161 0 0 1 -2.44531.832 1 1 0 0 0 0 2 5.74513 5.74513 0 0 0 3.55469-1.168 3.94251 3.94251 0 0 1 4.88965 0 5.92724 5.92724 0 0 0 7.1084 0 3.78244 3.78244 0 0 1 2.44628-.832 1 1 0 0 0 0-2z" fill="#0C1B33"/></svg>