<svg id="Line" height="512" viewBox="0 0 64 64" width="512" xmlns="http://www.w3.org/2000/svg"><path d="m41.793 44.71588a2.001 2.001 0 0 1 -2.82813 0l-2.8291-2.82861-2.82812 2.82861 7.07129 7.07129 11.31347-11.314.001-.001-2.8291-2.82764z" fill="#8CC743"/><path d="m56.5 27h-28a3.00328 3.00328 0 0 0 -3 3v30a3.00328 3.00328 0 0 0 3 3h28a3.00328 3.00328 0 0 0 3-3v-30a3.00328 3.00328 0 0 0 -3-3zm-3.39355 15.17139-11.31345 11.31396a2.00353 2.00353 0 0 1 -2.82813.00049l-7.07129-7.07178a2.001 2.001 0 0 1 0-2.82812l2.82813-2.82862a2.001 2.001 0 0 1 2.82812 0l2.82911 2.82862 7.07129-7.07129a2.0037 2.0037 0 0 1 2.82812-.00049l2.82813 2.8291a2.00105 2.00105 0 0 1 -.00003 2.82813z" fill="#8CC743"/><g fill="#0C1B33"><path d="m36.5 10.90015v-6.90009a3.001 3.001 0 0 0 -3.39648-2.97363l-24.95899 3.32812a4.21194 4.21194 0 0 0 -3.64453 4.16211v39.19922a3.00328 3.00328 0 0 0 3 3h28a3.00328 3.00328 0 0 0 3-3v-34a2.99507 2.99507 0 0 0 -2-2.81573zm-28.0918-4.56315 24.959-3.32813a.99892.99892 0 0 1 1.1328.99119v6.71582h-25.80078a2.19911 2.19911 0 0 1 -.291-4.3789zm28.0918 41.37888a1.001 1.001 0 0 1 -1 1h-28a1.001 1.001 0 0 1 -1-1v-35.63824a4.15825 4.15825 0 0 0 2.19922.63824h26.80078a1.001 1.001 0 0 1 1 1z"/><path d="m32.5 43.71588h-22a1 1 0 0 0 0 2h22a1 1 0 0 0 0-2z"/><path d="m21.5 14.71588a12 12 0 1 0 12 12 12.01343 12.01343 0 0 0 -12-12zm8.64691 7h-3.623a19.60769 19.60769 0 0 0 -2.68579-4.71264 10.02286 10.02286 0 0 1 6.30879 4.71264zm-11.499 10h5.70422a19.22266 19.22266 0 0 1 -2.85213 4.46021 19.22266 19.22266 0 0 1 -2.85211-4.46021zm-.71124-2a11.36109 11.36109 0 0 1 0-6h7.1267a11.36109 11.36109 0 0 1 0 6zm-6.43665-3a9.96169 9.96169 0 0 1 .46124-3h3.897a13.13038 13.13038 0 0 0 -.00226 6h-3.89476a9.96169 9.96169 0 0 1 -.46124-3zm12.85211-5h-5.70424a19.2224 19.2224 0 0 1 2.85211-4.4602 19.2224 19.2224 0 0 1 2.85211 4.4602zm2.78961 2h3.8971a9.98817 9.98817 0 0 1 0 6h-3.89484a13.13038 13.13038 0 0 0 -.00228-6zm-7.97979-6.71264a19.60769 19.60769 0 0 0 -2.68579 4.71264h-3.62307a10.02286 10.02286 0 0 1 6.30884-4.71264zm-6.30886 14.71264h3.62463a19.59015 19.59015 0 0 0 2.68067 4.71173 10.02313 10.02313 0 0 1 -6.3053-4.71173zm10.98852 4.71173a19.59015 19.59015 0 0 0 2.68067-4.71173h3.62463a10.02313 10.02313 0 0 1 -6.3053 4.71173z"/></g></svg>