<svg id="Line" height="512" viewBox="0 0 64 64" width="512" xmlns="http://www.w3.org/2000/svg"><g fill="#8CC743"><path d="m63 53v-.81573a2.96457 2.96457 0 0 0 -1-.18427 3.00328 3.00328 0 0 0 -3 3 2.96485 2.96485 0 0 0 .18433 1h.81567a3.00328 3.00328 0 0 0 3-3z"/><path d="m44 34a8 8 0 1 0 8 8 8.00917 8.00917 0 0 0 -8-8zm0 14a6.00657 6.00657 0 0 1 -6-6 1 1 0 0 1 2 0 4.004 4.004 0 0 0 4 4 1 1 0 0 1 0 2zm5-5a.99943.99943 0 0 1 -1-1 4.004 4.004 0 0 0 -4-4 1 1 0 0 1 0-2 6.00657 6.00657 0 0 1 6 6 .99943.99943 0 0 1 -1 1z"/><path d="m62 34a4.99978 4.99978 0 0 1 -4.89893-6h-26.20214a4.99978 4.99978 0 0 1 -5.89893 5.89893v16.20214a4.99978 4.99978 0 0 1 5.89893 5.89893h26.20214a4.99978 4.99978 0 0 1 5.89893-5.89893v-16.20214a5.00068 5.00068 0 0 1 -1 .10107zm-18 18a10 10 0 1 1 10-10 10.01177 10.01177 0 0 1 -10 10z"/><path d="m62 32a2.96457 2.96457 0 0 0 1-.18427v-.81573a3.00328 3.00328 0 0 0 -3-3h-.81573a2.96457 2.96457 0 0 0 -.18427 1 3.00328 3.00328 0 0 0 3 3z"/><path d="m26 52a2.96457 2.96457 0 0 0 -1 .18427v.81573a3.00328 3.00328 0 0 0 3 3h.81573a2.96457 2.96457 0 0 0 .18427-1 3.00328 3.00328 0 0 0 -3-3z"/><path d="m25 31v.81567a2.96485 2.96485 0 0 0 1 .18433 3.00328 3.00328 0 0 0 3-3 2.96457 2.96457 0 0 0 -.18427-1h-.81573a3.00328 3.00328 0 0 0 -3 3z"/><path d="m60 58h-32a4.95129 4.95129 0 0 1 -3-1.02557v3.02557a3 3 0 0 0 3 3h32a3 3 0 0 0 3-3v-3.02557a4.95129 4.95129 0 0 1 -3 1.02557z"/></g><path d="m47.38379 25.47834a5.56173 5.56173 0 0 0 -8.09863.9331l-7.19239 9.80856a2.30092 2.30092 0 0 1 -2.11834.81738 4.95129 4.95129 0 0 0 1.02557-3 5.00588 5.00588 0 0 0 -5-5h-10.16895a4.00881 4.00881 0 0 0 -2.05859.56982l-2.77246 1.66349v-1.23327a.99974.99974 0 0 0 -1-1h-7a2.00229 2.00229 0 0 0 -2 2v18a2.0026 2.0026 0 0 0 2 2h6a2.0026 2.0026 0 0 0 2-2v-1.13153l3.43749 2.29168a4.97676 4.97676 0 0 0 2.77345.83985h14.80761a5.02381 5.02381 0 0 0 3.97657-1.96973l12.19336-16.00195a5.56172 5.56172 0 0 0 -.80469-7.5874zm-38.38379 23.55908h-6v-18h6zm37.59668-17.1836-12.19238 16.00196a3.0143 3.0143 0 0 1 -2.38575 1.18164h-14.80761a2.98493 2.98493 0 0 1 -1.66406-.50391l-4.54688-3.03125v-11.89868l3.80078-2.281a2.0068 2.0068 0 0 1 1.03027-.28515h10.16895c3.97039 0 3.96639 6 0 6h-9a1 1 0 0 0 0 2h13.47949a4.01528 4.01528 0 0 0 3.22656-1.63379l7.19239-9.80957a3.55738 3.55738 0 1 1 5.69824 4.25976z" fill="#0C1B33"/><path d="m13.5459 21.57306c4.01465-1.14453 8.02246-.37207 12.26465.44629a43.90163 43.90163 0 0 0 8.27539 1.05615 17.865 17.865 0 0 0 4.71972-.59619h.001a2.99762 2.99762 0 0 0 2.19334-2.89599v-15.16504a1.99345 1.99345 0 0 0 -2.5459-1.91651c-3.97991 1.13484-8.25913.32657-12.26465-.44629-4.22363-.81445-8.58984-1.65527-12.99609-.46a2.99764 2.99764 0 0 0 -2.19336 2.89604v15.165a1.99362 1.99362 0 0 0 2.5459 1.91654zm-.5459-1.9165v-3.47717a3.99651 3.99651 0 0 1 2.88147 2.93353 16.64 16.64 0 0 0 -2.88147.54364zm25.28125.89307a14.73539 14.73539 0 0 1 -2.10931.39166 3.99143 3.99143 0 0 1 2.82806-2.7619v1.40393a.99463.99463 0 0 1 -.71875.96631zm.71875-16.13135v3.47717a3.99677 3.99677 0 0 1 -2.88336-2.93976 16.5818 16.5818 0 0 0 2.88336-.53741zm-13.18945-.39893a43.72775 43.72775 0 0 0 8.28479 1.05084 6.00609 6.00609 0 0 0 4.90466 4.8769v6.18066a6.00477 6.00477 0 0 0 -4.91486 4.94354 42.12025 42.12025 0 0 1 -7.89569-1.01581 43.8476 43.8476 0 0 0 -8.26172-1.05468l-.02356.00067a6.00606 6.00606 0 0 0 -4.90417-4.87372v-6.18066a6.00477 6.00477 0 0 0 4.91486-4.94355 42.12748 42.12748 0 0 1 7.89569 1.01581zm-12.09278-.49414a14.74331 14.74331 0 0 1 2.11029-.39166 3.99155 3.99155 0 0 1 -2.82806 2.7619v-1.40393a.99492.99492 0 0 1 .71777-.96631z" fill="#0C1B33"/><path d="m26 18.03742a6 6 0 1 0 -6-6 6.00657 6.00657 0 0 0 6 6zm0-10a4 4 0 1 1 -4 4 4.00427 4.00427 0 0 1 4-4z" fill="#0C1B33"/></svg>