<svg id="Line" height="512" viewBox="0 0 64 64" width="512" xmlns="http://www.w3.org/2000/svg"><path d="m44 25a19 19 0 1 0 19 19 19.02162 19.02162 0 0 0 -19-19zm0 3.5a1.5 1.5 0 1 1 -1.5 1.5 1.5 1.5 0 0 1 1.5-1.5zm-14 17a1.5 1.5 0 1 1 1.5-1.5 1.5 1.5 0 0 1 -1.5 1.5zm14 14a1.5 1.5 0 1 1 1.5-1.5 1.5 1.5 0 0 1 -1.5 1.5zm5.581-7.68652a.99908.99908 0 0 1 -1.39453-.23243l-5-7a.99949.99949 0 0 1 -.18647-.58105v-10a1 1 0 0 1 2 0v9.67969l4.81348 6.73931a.99931.99931 0 0 1 -.23243 1.39448zm8.419-6.31348a1.5 1.5 0 1 1 1.5-1.5 1.5 1.5 0 0 1 -1.5 1.5z" fill="#8CC743"/><g fill="#0C1B33"><path d="m48 5h-2v-3a.99943.99943 0 0 0 -1-1h-6a.99943.99943 0 0 0 -1 1v3h-8v-3a.99974.99974 0 0 0 -1-1h-6a.99974.99974 0 0 0 -1 1v3h-8v-3a.99974.99974 0 0 0 -1-1h-6a.99974.99974 0 0 0 -1 1v3h-2a3.00328 3.00328 0 0 0 -3 3v36a3.00328 3.00328 0 0 0 3 3h44a3.00328 3.00328 0 0 0 3-3v-36a3.00328 3.00328 0 0 0 -3-3zm-8-2h4v6h-4zm-16 0h4v6h-4zm-16 0h4v6h-4zm-5 5a1.001 1.001 0 0 1 1-1h2v3a.99974.99974 0 0 0 1 1h6a.99974.99974 0 0 0 1-1v-3h8v3a.99974.99974 0 0 0 1 1h6a.99974.99974 0 0 0 1-1v-3h8v3a.99943.99943 0 0 0 1 1h6a.99943.99943 0 0 0 1-1v-3h2a1.00067 1.00067 0 0 1 1 1v5h-46zm46 36a1.00067 1.00067 0 0 1 -1 1h-44a1.001 1.001 0 0 1 -1-1v-29h46z"/><path d="m6 30h26a.99974.99974 0 0 0 1-1v-10a.99974.99974 0 0 0 -1-1h-26a.99974.99974 0 0 0 -1 1v10a.99974.99974 0 0 0 1 1zm1-10h24v8h-24z"/><path d="m6 42h26a1 1 0 0 0 0-2h-26a1 1 0 0 0 0 2z"/><path d="m36 42h10a.99943.99943 0 0 0 1-1v-22a.99943.99943 0 0 0 -1-1h-10a.99943.99943 0 0 0 -1 1v22a.99943.99943 0 0 0 1 1zm1-22h8v20h-8z"/></g></svg>