<svg id="Line" height="512" viewBox="0 0 64 64" width="512" xmlns="http://www.w3.org/2000/svg"><g fill="#8CC743"><path d="m48.00027 40.98779h-6a1.00068 1.00068 0 0 0 -1 1v6a1.00067 1.00067 0 0 0 1 1h6a1.00067 1.00067 0 0 0 1-1v-6a1.00068 1.00068 0 0 0 -1-1zm-3 5.5a1.5 1.5 0 1 1 1.5-1.5 1.5 1.5 0 0 1 -1.5 1.5z"/><path d="m47.00027 35.98779a2 2 0 1 0 -4 0v3h4z"/><path d="m62.52994 30.4551c-11.582-7.24024-23.418-7.24024-35 0a1.00129 1.00129 0 0 0 -.46875.89941c.59681 11.47631 6.24832 25.99149 17.59473 30.57325a1.00436 1.00436 0 0 0 .748 0c11.34286-4.58033 16.99909-19.11857 17.59473-30.57325a1.00129 1.00129 0 0 0 -.46871-.89941zm-11.53027 17.5449a3.00328 3.00328 0 0 1 -3 3h-6a3.00328 3.00328 0 0 1 -3-3v-6a2.99507 2.99507 0 0 1 2-2.81573v-3.18427a4 4 0 0 1 8 0v3.18427a2.99507 2.99507 0 0 1 2 2.81573z"/></g><path d="m50.16726 13.00146c-.05371-.00878-5.33691-.96093-6.18652-5.21a.99806.99806 0 0 0 -.47363-.666c-11.61719-6.834-23.39649-6.834-35.01367 0a.99807.99807 0 0 0 -.47364.666c-.84961 4.249-6.13281 5.20118-6.18359 5.21a1.00014 1.00014 0 0 0 -.82321 1.14554c5.04 31.249 23.88672 37.542 24.68652 37.79395a.98844.98844 0 0 0 .60156 0c.79981-.252 19.64649-6.54492 24.68653-37.79395a1.00309 1.00309 0 0 0 -.82035-1.14554zm-24.16894 36.92188c-12.89018-4.99084-20.43893-21.22-22.85742-35.18066 1.834-.52442 5.68457-2.085 6.73633-6.1084 10.70117-6.15039 21.54492-6.15039 32.24609 0 1.05176 4.02343 4.90234 5.584 6.73633 6.1084-4.69043 27.083-20.4834 34.24804-22.86133 35.18066z" fill="#0C1B33"/><path d="m40.5784 10.31592a.99437.99437 0 0 0 -.45215-.50391 29.79879 29.79879 0 0 0 -14.126-3.82422 29.79878 29.79878 0 0 0 -14.12595 3.82421.99432.99432 0 0 0 -.45215.50391 10.75544 10.75544 0 0 1 -5.31446 5.42676 1.00078 1.00078 0 0 0 -.53418 1.09765c1.13965 5.51563 5.94825 24.03028 19.9961 30.72656a.99811.99811 0 0 0 .86133 0c14.04785-6.69627 18.85644-25.21088 19.99606-30.72655a1.00076 1.00076 0 0 0 -.53418-1.09765 10.75543 10.75543 0 0 1 -5.31442-5.42676zm-14.57813 35.2334c-3.73828-1.915-14.06152-8.85254-18.31251-28.38086a12.55316 12.55316 0 0 0 5.44142-5.75782 27.65664 27.65664 0 0 1 12.87109-3.42285 27.65668 27.65668 0 0 1 12.8711 3.42285 12.55316 12.55316 0 0 0 5.44139 5.75782c-4.25096 19.52832-14.57421 26.46582-18.31249 28.38086z" fill="#0C1B33"/><path d="m35.1868 17.40674-9.36524 13.11035-6.1709-5.28809a.99938.99938 0 0 0 -1.30078 1.51758l7 6a.99842.99842 0 0 0 1.46387-.17773l10-14a.99968.99968 0 0 0 -1.627-1.16211z" fill="#0C1B33"/></svg>