<svg id="Line" height="512" viewBox="0 0 64 64" width="512" xmlns="http://www.w3.org/2000/svg"><circle cx="41" cy="49" fill="#8CC743" r="2"/><circle cx="41" cy="36" fill="#8CC743" r="2"/><path d="m60 22h-24a3.00879 3.00879 0 0 0 -3 3v34a3.00883 3.00883 0 0 0 3 3h24a3.00883 3.00883 0 0 0 3-3v-34a3.00879 3.00879 0 0 0 -3-3zm-1 14a.99974.99974 0 0 1 -1 1h-10a1 1 0 0 1 0-2h10a.99974.99974 0 0 1 1 1zm0 13a.99974.99974 0 0 1 -1 1h-10a1 1 0 0 1 0-2h10a.99974.99974 0 0 1 1 1zm-14-23h6a1 1 0 0 1 0 2h-6a1 1 0 0 1 0-2zm-4 6a4 4 0 1 1 -4 4 4.00427 4.00427 0 0 1 4-4zm0 13a4 4 0 1 1 -4 4 4.00427 4.00427 0 0 1 4-4zm20 14a1.003 1.003 0 0 1 -1 1h-24a1.003 1.003 0 0 1 -1-1v-1h26z" fill="#8CC743"/><g fill="#0C1B33"><circle cx="18" cy="8" r="1.5"/><path d="m42 14h-7.00012l.00012-.00049v-8.99951a3.00328 3.00328 0 0 0 -3-3h-28a3.00328 3.00328 0 0 0 -3 3v44a3.00328 3.00328 0 0 0 3 3h28a3.00328 3.00328 0 0 0 3-3v-11h7a3.00328 3.00328 0 0 0 3-3v-18a3.00328 3.00328 0 0 0 -3-3zm-10 36h-28a1.001 1.001 0 0 1 -1-1v-1h30v1a1.001 1.001 0 0 1 -1 1zm1-4h-30v-41a1.0013 1.0013 0 0 1 1-1h28a1.0013 1.0013 0 0 1 1 1v8.99951l.00012.00049h-19.00012a3.00328 3.00328 0 0 0 -3 3v18a3.00328 3.00328 0 0 0 3 3h3v5a1.0008 1.0008 0 0 0 1.6001.7998l7.7334-5.7998h6.6665zm10-11a1.001 1.001 0 0 1 -1 1h-16a1.00071 1.00071 0 0 0 -.6001.2002l-6.3999 4.7998v-4a.99974.99974 0 0 0 -1-1h-4a1.001 1.001 0 0 1 -1-1v-18a1.0013 1.0013 0 0 1 1-1h28a1.0013 1.0013 0 0 1 1 1z"/><path d="m24 18h-8a1 1 0 0 0 -1 1v14a1 1 0 0 0 1 1h8a1 1 0 0 0 1-1v-14a1 1 0 0 0 -1-1zm-1 14h-6v-12h6z"/><path d="m40 20h-12a1 1 0 0 0 0 2h12a1 1 0 0 0 0-2z"/><path d="m40 30h-12a1 1 0 0 0 0 2h12a1 1 0 0 0 0-2z"/><path d="m40 25h-12a1 1 0 0 0 0 2h12a1 1 0 0 0 0-2z"/></g></svg>