<svg id="Line" height="512" viewBox="0 0 64 64" width="512" xmlns="http://www.w3.org/2000/svg"><path d="m58.44543 36.15723 3.79779 3.03863.73248-3.254a1.00187 1.00187 0 0 0 -.19434-.84423l-8.74511-10.93263a1.00172 1.00172 0 0 0 -.78125-.37549h-6.40332a.99943.99943 0 0 0 -.625.21924l-14.36487 11.49125h24.70959a3.01169 3.01169 0 0 1 1.87403.65723z" fill="#8CC743"/><path d="m57.1964 37.71924a.99943.99943 0 0 0 -.625-.21924h-22v5a1 1 0 0 1 -2 0v-5h-2a.99945.99945 0 0 0 -.625.21924l-5 4a.99887.99887 0 0 0 -.375.78076v14a.99887.99887 0 0 0 .375.78076l5 4a.99945.99945 0 0 0 .625.21924h2v-5a1 1 0 0 1 2 0v5h22a.99943.99943 0 0 0 .625-.21924l5-4a.99883.99883 0 0 0 .375-.78076v-14a.99883.99883 0 0 0 -.375-.78076zm-22.625 13.78076a1 1 0 0 1 -2 0v-4a1 1 0 0 1 2 0zm3-9h16a1 1 0 0 1 0 2h-16a1 1 0 0 1 0-2zm16 14h-16a1 1 0 0 1 0-2h16a1 1 0 0 1 0 2zm3-6h-19a1 1 0 0 1 0-2h19a1 1 0 0 1 0 2z" fill="#8CC743"/><g fill="#0C1B33"><path d="m46.70215 3.64942-2.86524 1.37549c-9.83582 4.72209-21.13977-3.05817-33.88183-2.49561a.99981.99981 0 0 0 -.95508.99903v3.07959a21.44518 21.44518 0 0 0 -6.81055 1.73633 2.0063 2.0063 0 0 0 -1.18945 1.83789v29.83007a1.9944 1.9944 0 0 0 2.71973 1.85987c13.61663-5.36777 27.68534 7.20975 42.09082.84814a2.0063 2.0063 0 0 0 1.18945-1.83789v-4.3501h3a.99974.99974 0 0 0 1-1v-29.17823a2.99982 2.99982 0 0 0 -4.29785-2.70458zm-1.707 37.24463c-10.13142 4.47054-20.26964-1.31065-30.99515-2.25842v-5.1034a1 1 0 0 0 -2 0v4.99077a22.278 22.278 0 0 0 -9 1.48925l-.00195-29.8389a20.43666 20.43666 0 0 1 9.00195-1.67078v6.02966a1 1 0 0 0 2 0v-5.90014c10.10059.95743 20.50071 6.56963 31 2.42016zm4.00485-6.36182h-2v-23.48a1.9946 1.9946 0 0 0 -2.71973-1.85986c-10.87206 4.28569-21.78546-2.80443-33.28027-2.68022v-2.01068c12.12021-.09514 23.30514 7.31824 33.70215 2.32617l2.86523-1.37548a1.00019 1.00019 0 0 1 1.43262.90184z"/><path d="m13 19.53223a.99974.99974 0 0 0 -1 1v7a1 1 0 0 0 2 0v-7a.99974.99974 0 0 0 -1-1z"/><path d="m25 23.53223a9.01016 9.01016 0 0 0 8.9986 8.99994l.00042.00006.00019-.00006.00079.00006.00079-.00006.00019.00006.00042-.00006a9 9 0 1 0 -9.0014-8.99994zm7.05408-1a12.07411 12.07411 0 0 1 1.94592-5.23364 12.07411 12.07411 0 0 1 1.94592 5.23364zm3.89184 2a12.07411 12.07411 0 0 1 -1.94592 5.23365 12.07411 12.07411 0 0 1 -1.94592-5.23365zm-4.009-7.6889a13.63 13.63 0 0 0 -1.90033 5.6889h-2.95669a7.01493 7.01493 0 0 1 4.85699-5.6889zm-4.857 7.6889h2.95666a13.63 13.63 0 0 0 1.90033 5.68891 7.01494 7.01494 0 0 1 -4.85701-5.68891zm8.98321 5.68891a13.63 13.63 0 0 0 1.90033-5.68891h2.95673a7.015 7.015 0 0 1 -4.85708 5.68891zm4.85706-7.68891h-2.95675a13.63 13.63 0 0 0 -1.90033-5.6889 7.015 7.015 0 0 1 4.85706 5.6889z"/><path d="m22 14.53223h-4a1 1 0 0 0 0 2h4a1 1 0 0 0 0-2z"/><path d="m22 18.53223h-2a1 1 0 0 0 0 2h2a1 1 0 0 0 0-2z"/><path d="m42 35.53223h-16a1 1 0 0 0 0 2h16a1 1 0 0 0 0-2z"/></g></svg>