<svg id="Line" height="512" viewBox="0 0 64 64" width="512" xmlns="http://www.w3.org/2000/svg"><g fill="#8CC743"><path d="m48.313 46.899 3.606-10.818-10.818 3.606z"/><path d="m36.081 51.919 10.818-3.606-7.212-7.212z"/><path d="m44 25a19 19 0 1 0 19 19 19.02162 19.02162 0 0 0 -19-19zm-1 3a1 1 0 0 1 2 0v4a1 1 0 0 1 -2 0zm-11 17h-4a1 1 0 0 1 0-2h4a1 1 0 0 1 0 2zm13 15a1 1 0 0 1 -2 0v-4a1 1 0 0 1 2 0zm9.44873-25.18359-4.75 14.25a1.00112 1.00112 0 0 1 -.63232.63232l-14.25 4.75a1.001 1.001 0 0 1 -1.26514-1.26514l4.75-14.25a1.00112 1.00112 0 0 1 .63232-.63232l14.25-4.75a1.00085 1.00085 0 0 1 1.26514 1.26514zm5.55127 10.18359h-4a1 1 0 0 1 0-2h4a1 1 0 0 1 0 2z"/></g><path d="m34.99982 18a8.99982 8.99982 0 1 0 -8.99982 9 9.01036 9.01036 0 0 0 8.99982-9zm-15.9997 0a6.99988 6.99988 0 1 1 6.99988 7 7.0078 7.0078 0 0 1 -6.99988-7z" fill="#0C1B33"/><path d="m50.88483 47.19043-3.99359-14a3.05641 3.05641 0 0 0 -2.94037-2.19043h-5.17066c2.41107-4.25031 4.21948-8.82684 4.21948-13a16.99969 16.99969 0 1 0 -33.99938 0c0 4.17316 1.80847 8.74969 4.21948 13h-5.17066a3.05647 3.05647 0 0 0 -2.94037 2.19043l-3.99359 14a3.00974 3.00974 0 0 0 2.94037 3.80957h43.88892a3.01 3.01 0 0 0 2.94037-3.80957zm-39.88459-29.19043a14.99976 14.99976 0 1 1 29.99952 0c0 10.02832-11.93876 23.31641-14.99976 26.55811-3.061-3.2417-14.99976-16.52979-14.99976-26.55811zm-3.96862 15.73926a1.04973 1.04973 0 0 1 1.01751-.73926h6.364a83.45069 83.45069 0 0 0 8.35058 11h-9.26347a1.50164 1.50164 0 0 1 -1.5-1.5 3.50419 3.50419 0 0 0 -3.49993-3.5h-2.96937zm9.96856 15.26074h-12.94464a1.01208 1.01208 0 0 1 -1.01754-1.26074l1.92239-6.73926h3.53992a1.50164 1.50164 0 0 1 1.5 1.5 3.50419 3.50419 0 0 0 3.49993 3.5h3.49994zm18.99964 0h-16.9997v-3h5.60578c.37005.38745.61657.6366.68707.707a.99962.99962 0 0 0 1.41406 0c.18646-.18628 1.54773-1.559 3.41-3.707h5.88282zm-4.19916-8a77.81554 77.81554 0 0 0 5.78634-8h6.36389a1.04981 1.04981 0 0 1 1.01757.73926l.64482 2.26074h-3.11359a3.50423 3.50423 0 0 0 -3.49993 3.5 1.50159 1.50159 0 0 1 -1.49994 1.5zm16.1438 8h-9.94464v-6.05054a3.495 3.495 0 0 0 2.99994-3.44946 1.50162 1.50162 0 0 1 1.49993-1.5h3.68409l2.77822 9.73926a1.01212 1.01212 0 0 1 -1.01754 1.26074z" fill="#0C1B33"/></svg>