<svg id="Line" height="512" viewBox="0 0 64 64" width="512" xmlns="http://www.w3.org/2000/svg"><path d="m37 34a3.87219 3.87219 0 0 1 3.02148 1.08887c1.12989 1.22851.97071 3.126.81641 4.96191a9.85 9.85 0 0 0 .11035 3.63281c.37988 1.13672 1.98145 2.00977 3.57422 1.95215a2.48452 2.48452 0 0 0 2.50781-1.87793 8.96668 8.96668 0 0 0 -.1416-4.07519c-.33691-1.68457-.75683-3.78028 1.79492-4.63086 2.62964-.87653 6.14478-3.0683 7.07569-5.089a18.88593 18.88593 0 0 0 -25.6305.10174c1.46827 1.64033 4.02716 3.9355 6.87122 3.9355z" fill="#8CC743"/><path d="m34.27441 46.03809c5.2959 1.51367 5.17871 4.40918 5.10157 6.32519-.04.98145-.04395 1.55469.33105 1.92969.33887.33887.80762.7334 1.30469 1.15137 1.93811 1.63086 4.98047 4.20355 4.18786 7.41766a18.81483 18.81483 0 0 0 5.8465-1.67468c-1.633-2.36255-3.04352-6.13507-.9035-9.702a9.669 9.669 0 0 0 1.35742-5.61032c0-1.67676 0-3.41016 1.94531-4.707a12.42715 12.42715 0 0 1 7.8573-2.19776 18.95323 18.95323 0 0 0 -4.08685-7.53314c-1.684 2.68659-5.69745 4.77722-7.89935 5.51117-.76661.25586-.85157.419-.4668 2.34278a10.74111 10.74111 0 0 1 .12012 4.95117 4.45484 4.45484 0 0 1 -4.60938 3.39648c-2.41211 0-4.668-1.39844-5.30859-3.32226a11.17067 11.17067 0 0 1 -.207-4.43262c.11816-1.40625.24023-2.85938-.29493-3.44141a2.09165 2.09165 0 0 0 -1.54983-.44241c-3.551 0-6.55133-2.59875-8.27423-4.4986a18.89695 18.89695 0 0 0 -3.90057 18.02417c1.91314-2.50067 5.09063-4.72957 9.44921-3.48748z" fill="#8CC743"/><path d="m54.55469 42.832c-1.01469.67581-1.05469 1.37894-1.05469 3.043a11.668 11.668 0 0 1 -1.64258 6.63965c-1.83331 3.05578-.17987 6.14258.96955 7.7157a18.73944 18.73944 0 0 0 8.91339-19.22467 10.46225 10.46225 0 0 0 -7.18567 1.82632z" fill="#8CC743"/><path d="m43.0354 62.99823c1.01544-2.13086-.82074-3.92859-3.31177-6.02362-.53027-.44629-1.03125-.86816-1.43066-1.26758a4.16934 4.16934 0 0 1 -.915-3.42383c.07227-1.81054.13086-3.24121-3.65234-4.32129-4.277-1.22546-6.84925 1.85553-8.02485 3.85212a19.013 19.013 0 0 0 17.29922 11.18597c.012 0 .02344-.00177.0354-.00177z" fill="#8CC743"/><g fill="#0C1B33"><path d="m4.58332 31.00167a.9999.9999 0 1 0 -1.94824.45117 24.58608 24.58608 0 0 0 1.27148 3.96191 1 1 0 0 0 1.84766-.76562 23.22871 23.22871 0 0 1 -1.1709-3.64746z"/><path d="m7.84943 11.32979a1.00075 1.00075 0 0 0 -1.39111.25293 25.13047 25.13047 0 0 0 -2.07764 3.6045 1 1 0 0 0 1.80957.85156 23.1828 23.1828 0 0 1 1.91162-3.31738.99961.99961 0 0 0 -.25244-1.39161z"/><path d="m45.09016 40.04464a23.02718 23.02718 0 0 1 -2.60352 2.80566.99955.99955 0 1 0 1.34766 1.47656 24.9946 24.9946 0 0 0 2.83007-3.04786 1.00023 1.00023 0 0 0 -1.57421-1.23437z"/><path d="m29.72639 2.99386a23.196 23.196 0 0 1 3.75048.77148.99965.99965 0 1 0 .56446-1.918 25.14868 25.14868 0 0 0 -4.07569-.83984 1.00034 1.00034 0 0 0 -.23925 1.98633z"/><path d="m20.25373 3.84737a22.94538 22.94538 0 0 1 3.74027-.81937.99988.99988 0 0 0 -.26269-1.98243 24.99613 24.99613 0 0 0 -4.06641.88965 1.00037 1.00037 0 0 0 .58887 1.91211z"/><path d="m19.2298 47.48507a23.15005 23.15005 0 0 1 -3.48486-1.58887 1.00031 1.00031 0 0 0 -.97656 1.74609 25.34169 25.34169 0 0 0 3.78467 1.72559 1.00037 1.00037 0 0 0 .67675-1.88281z"/><path d="m11.92805 8.45382a22.94865 22.94865 0 0 1 3.09228-2.25582 1.00029 1.00029 0 0 0 -1.04-1.709 24.96821 24.96821 0 0 0 -3.36185 2.4531 1 1 0 1 0 1.30957 1.51172z"/><path d="m3.00031 26.27413a.9993.9993 0 0 0 .999-.97559 23.07909 23.07909 0 0 1 .41113-3.80664 1 1 0 0 0 -1.96384-.3789 25.06355 25.06355 0 0 0 -.44629 4.13672 1 1 0 0 0 .97559 1.02441z"/><path d="m8.58869 39.63253a1.00039 1.00039 0 0 0 -1.60156 1.19922 24.90836 24.90836 0 0 0 2.76465 3.11132 1.0002 1.0002 0 1 0 1.3789-1.44921 22.83518 22.83518 0 0 1 -2.54199-2.86133z"/><path d="m50.50812 30.78585a.99574.99574 0 0 0 -1.21582.72168 23.23717 23.23717 0 0 1 -1.252 3.62012 1 1 0 0 0 1.83008.80664 25.16917 25.16917 0 0 0 1.35937-3.93262.99951.99951 0 0 0 -.72163-1.21582z"/><path d="m28.65363 48.7839a23.06088 23.06088 0 0 1 -3.82763-.0439.98857.98857 0 0 0 -1.09131.89941 1.00015 1.00015 0 0 0 .8999 1.09082 24.77037 24.77037 0 0 0 4.16455.04786.99972.99972 0 1 0 -.14551-1.99414z"/><path d="m50.50129 20.8503a1.00125 1.00125 0 0 0 -.81934 1.15332 22.96078 22.96078 0 0 1 .32422 3.81445.99984.99984 0 0 0 1 .999h.001a1 1 0 0 0 .999-1.001 24.94791 24.94791 0 0 0 -.35156-4.14648 1.00625 1.00625 0 0 0 -1.15332-.81929z"/><path d="m37.79914 46.1462a23.4542 23.4542 0 0 1 -3.52441 1.5098 1.00057 1.00057 0 0 0 .63867 1.89648 25.57426 25.57426 0 0 0 3.82129-1.63867.99995.99995 0 0 0 -.93555-1.76758z"/><path d="m55.70637 13.21358-1.78907-1.79a.99927.99927 0 0 0 -.707-.293h-2.2705l-1.18949-1.18946 4.62891-1.32226a1.00084 1.00084 0 0 0 .43261-1.66895l-1.79-1.78906a1.001 1.001 0 0 0 -.707-.293h-6.74323l-.123-.12305a6.18946 6.18946 0 0 0 -8.04882-.57129 1.00021 1.00021 0 0 0 -.10743 1.50684l10.26165 10.26077a4.57191 4.57191 0 0 0 6.09766.33692l1.97168-1.57618a1.00047 1.00047 0 0 0 .08303-1.48828zm-3.30371 1.50293-.001.001a2.57767 2.57767 0 0 1 -3.43359-.19043l-9.32323-9.32229a4.36 4.36 0 0 1 4.80567 1.37012.99927.99927 0 0 0 .707.293h6.74319l.29492.29492-4.6289 1.32227a1.00084 1.00084 0 0 0 -.43262 1.6689l2.68457 2.6836a.99927.99927 0 0 0 .707.293h2.27051l.70606.707z"/><path d="m26.99934 6.83663a19.00019 19.00019 0 1 0 4.71984 37.38251l.00281.00421.01215-.00812a18.98762 18.98762 0 0 0 -4.7348-37.3786zm-17 19a16.88188 16.88188 0 0 1 1.11266-5.99622 2.82277 2.82277 0 0 1 2.88739 2.99622c0 3.50586.65429 7.69434 5.75732 8.96973a4.86212 4.86212 0 0 1 3.105 2.48828c1.14 2.07635 1.21942 5.01117.2337 8.07171a17.01683 17.01683 0 0 1 -13.09607-16.52972zm15.07379 16.88287c1.064-3.49218.91144-6.89251-.45807-9.38678a6.89944 6.89944 0 0 0 -4.373-3.46582c-3.01367-.7539-4.24267-2.79-4.24267-7.03027a4.69032 4.69032 0 0 0 -4.0387-4.90283 16.9959 16.9959 0 0 1 31.95031 9.64087c-3.38442-2.156-8.02784-3.74206-9.80622-.18531a9.3073 9.3073 0 0 0 -1.10546 4.69727 2.22877 2.22877 0 0 1 -.707 2.043 7.11938 7.11938 0 0 0 -1.66522 8.308 16.40723 16.40723 0 0 1 -5.554.28192zm7.51532-.84619a5.11858 5.11858 0 0 1 1.11792-6.32965 4.16086 4.16086 0 0 0 1.293-3.457 7.35534 7.35534 0 0 1 .89453-3.80273c1.20872-2.42213 5.385.042 7.63751 1.44763a17.04182 17.04182 0 0 1 -10.94296 12.14175z"/><path d="m30.94807 26.153a4.91686 4.91686 0 0 1 2.51269-2.88184 12.64456 12.64456 0 0 0 2.24561-1.72754c3.54913-3.54914 3.31421-6.72163-1.51075-7.6875a6.94817 6.94817 0 0 1 -3.604-1.74219c-1.10986-.94433-2.05664-1.50488-4.147-.10937-.62744.418-1.24121.74609-1.835 1.06347-1.77491.94922-3.61035 1.93067-3.61035 4.76856a11.37628 11.37628 0 0 0 1.168 5.03125c.27247.64648.58155 1.37988.88331 2.28516 1.31199 3.935 6.58942 4.92289 7.89749 1zm-6-1.63282c-.32618-.97754-.65137-1.749-.938-2.42968a9.381 9.381 0 0 1 -1.01074-4.25391c0-1.57617.73681-2.0332 2.55322-3.00488a23.128 23.128 0 0 0 2.00145-1.16305c.50489-.33691.75391-.50293.97364-.50293.21435 0 .3999.1582.76757.47168a8.90922 8.90922 0 0 0 4.50782 2.17969c2.67309.53422 3.32124 1.47911.48925 4.3125a10.90072 10.90072 0 0 1 -1.9165 1.46191 6.82684 6.82684 0 0 0 -3.32519 3.92871c-.68603 2.05678-3.41972 1.04915-4.10252-1z"/></g></svg>